<svg viewBox="-25.000000 -25.000000 50.000000 50.000000">
<path d="
M -10.000000 -0.544021
L -10.000000 -0.544021
L -9.900000 -0.457536
L -9.800000 -0.366479
L -9.700000 -0.271761
L -9.600000 -0.174327
L -9.500000 -0.075151
L -9.400000 0.024775
L -9.300000 0.124454
L -9.200000 0.222890
L -9.100000 0.319098
L -9.000000 0.412118
L -8.900000 0.501021
L -8.800000 0.584917
L -8.700000 0.662969
L -8.600000 0.734397
L -8.500000 0.798487
L -8.400000 0.854599
L -8.300000 0.902172
L -8.200000 0.940731
L -8.100000 0.969890
L -8.000000 0.989358
L -7.900000 0.998941
L -7.800000 0.998543
L -7.700000 0.988168
L -7.600000 0.967920
L -7.500000 0.938000
L -7.400000 0.898708
L -7.300000 0.850437
L -7.200000 0.793668
L -7.100000 0.728969
L -7.000000 0.656987
L -6.900000 0.578440
L -6.800000 0.494113
L -6.700000 0.404850
L -6.600000 0.311541
L -6.500000 0.215120
L -6.400000 0.116549
L -6.300000 0.016814
L -6.200000 -0.083089
L -6.100000 -0.182163
L -6.000000 -0.279415
L -5.900000 -0.373877
L -5.800000 -0.464602
L -5.700000 -0.550686
L -5.600000 -0.631267
L -5.500000 -0.705540
L -5.400000 -0.772764
L -5.300000 -0.832267
L -5.200000 -0.883455
L -5.100000 -0.925815
L -5.000000 -0.958924
L -4.900000 -0.982453
L -4.800000 -0.996165
L -4.700000 -0.999923
L -4.600000 -0.993691
L -4.500000 -0.977530
L -4.400000 -0.951602
L -4.300000 -0.916166
L -4.200000 -0.871576
L -4.100000 -0.818277
L -4.000000 -0.756802
L -3.900000 -0.687766
L -3.800000 -0.611858
L -3.700000 -0.529836
L -3.600000 -0.442520
L -3.500000 -0.350783
L -3.400000 -0.255541
L -3.300000 -0.157746
L -3.200000 -0.058374
L -3.100000 0.041581
L -3.000000 0.141120
L -2.900000 0.239249
L -2.800000 0.334988
L -2.700000 0.427380
L -2.600000 0.515501
L -2.500000 0.598472
L -2.400000 0.675463
L -2.300000 0.745705
L -2.200000 0.808496
L -2.100000 0.863209
L -2.000000 0.909297
L -1.900000 0.946300
L -1.800000 0.973848
L -1.700000 0.991665
L -1.600000 0.999574
L -1.500000 0.997495
L -1.400000 0.985450
L -1.300000 0.963558
L -1.200000 0.932039
L -1.100000 0.891207
L -1.000000 0.841471
L -0.900000 0.783327
L -0.800000 0.717356
L -0.700000 0.644218
L -0.600000 0.564642
L -0.500000 0.479426
L -0.400000 0.389418
L -0.300000 0.295520
L -0.200000 0.198669
L -0.100000 0.099833
L -0.000000 0.000000
L 0.100000 -0.099833
L 0.200000 -0.198669
L 0.300000 -0.295520
L 0.400000 -0.389418
L 0.500000 -0.479426
L 0.600000 -0.564642
L 0.700000 -0.644218
L 0.800000 -0.717356
L 0.900000 -0.783327
L 1.000000 -0.841471
L 1.100000 -0.891207
L 1.200000 -0.932039
L 1.300000 -0.963558
L 1.400000 -0.985450
L 1.500000 -0.997495
L 1.600000 -0.999574
L 1.700000 -0.991665
L 1.800000 -0.973848
L 1.900000 -0.946300
L 2.000000 -0.909297
L 2.100000 -0.863209
L 2.200000 -0.808496
L 2.300000 -0.745705
L 2.400000 -0.675463
L 2.500000 -0.598472
L 2.600000 -0.515501
L 2.700000 -0.427380
L 2.800000 -0.334988
L 2.900000 -0.239249
L 3.000000 -0.141120
L 3.100000 -0.041581
L 3.200000 0.058374
L 3.300000 0.157746
L 3.400000 0.255541
L 3.500000 0.350783
L 3.600000 0.442520
L 3.700000 0.529836
L 3.800000 0.611858
L 3.900000 0.687766
L 4.000000 0.756802
L 4.100000 0.818277
L 4.200000 0.871576
L 4.300000 0.916166
L 4.400000 0.951602
L 4.500000 0.977530
L 4.600000 0.993691
L 4.700000 0.999923
L 4.800000 0.996165
L 4.900000 0.982453
L 5.000000 0.958924
L 5.100000 0.925815
L 5.200000 0.883455
L 5.300000 0.832267
L 5.400000 0.772764
L 5.500000 0.705540
L 5.600000 0.631267
L 5.700000 0.550686
L 5.800000 0.464602
L 5.900000 0.373877
L 6.000000 0.279415
L 6.100000 0.182163
L 6.200000 0.083089
L 6.300000 -0.016814
L 6.400000 -0.116549
L 6.500000 -0.215120
L 6.600000 -0.311541
L 6.700000 -0.404850
L 6.800000 -0.494113
L 6.900000 -0.578440
L 7.000000 -0.656987
L 7.100000 -0.728969
L 7.200000 -0.793668
L 7.300000 -0.850437
L 7.400000 -0.898708
L 7.500000 -0.938000
L 7.600000 -0.967920
L 7.700000 -0.988168
L 7.800000 -0.998543
L 7.900000 -0.998941
L 8.000000 -0.989358
L 8.100000 -0.969890
L 8.200000 -0.940731
L 8.300000 -0.902172
L 8.400000 -0.854599
L 8.500000 -0.798487
L 8.600000 -0.734397
L 8.700000 -0.662969
L 8.800000 -0.584917
L 8.900000 -0.501021
L 9.000000 -0.412118
L 9.100000 -0.319098
L 9.200000 -0.222890
L 9.300000 -0.124454
L 9.400000 -0.024775
L 9.500000 0.075151
L 9.600000 0.174327
L 9.700000 0.271761
L 9.800000 0.366479
L 9.900000 0.457536
L 10.000000 0.544021
L 10.000000 0.544021
"
stroke="rgb(255.000000 0.000000 0.000000)" stroke-width="0.500000" fill="none"/></svg>
