<svg viewBox="-25.000000 -25.000000 50.000000 50.000000">
<path d="
M -15.000000 -5.000000
L -15.000000 -5.000000
L -14.900000 -5.994987
L -14.800000 -6.400000
L -14.700000 -6.705872
L -14.600000 -6.959592
L -14.500000 -7.179449
L -14.400000 -7.374868
L -14.300000 -7.551470
L -14.200000 -7.712932
L -14.100000 -7.861818
L -14.000000 -8.000000
L -13.900000 -8.128898
L -13.800000 -8.249615
L -13.700000 -8.363034
L -13.600000 -8.469870
L -13.500000 -8.570714
L -13.400000 -8.666061
L -13.300000 -8.756328
L -13.200000 -8.841875
L -13.100000 -8.923009
L -13.000000 -9.000000
L -12.900000 -9.073082
L -12.800000 -9.142463
L -12.700000 -9.208325
L -12.600000 -9.270831
L -12.500000 -9.330127
L -12.400000 -9.386342
L -12.300000 -9.439595
L -12.200000 -9.489989
L -12.100000 -9.537621
L -12.000000 -9.582576
L -11.900000 -9.624932
L -11.800000 -9.664762
L -11.700000 -9.702127
L -11.600000 -9.737088
L -11.500000 -9.769696
L -11.400000 -9.800000
L -11.300000 -9.828043
L -11.200000 -9.853864
L -11.100000 -9.877499
L -11.000000 -9.898979
L -10.900000 -9.918333
L -10.800000 -9.935585
L -10.700000 -9.950758
L -10.600000 -9.963869
L -10.500000 -9.974937
L -10.400000 -9.983974
L -10.300000 -9.990992
L -10.200000 -9.995998
L -10.100000 -9.999000
L -10.000000 -10.000000
L -9.900000 -9.999000
L -9.800000 -9.995998
L -9.700000 -9.990992
L -9.600000 -9.983974
L -9.500000 -9.974937
L -9.400000 -9.963869
L -9.300000 -9.950758
L -9.200000 -9.935585
L -9.100000 -9.918333
L -9.000000 -9.898979
L -8.900000 -9.877499
L -8.800000 -9.853864
L -8.700000 -9.828043
L -8.600000 -9.800000
L -8.500000 -9.769696
L -8.400000 -9.737088
L -8.300000 -9.702127
L -8.200000 -9.664762
L -8.100000 -9.624932
L -8.000000 -9.582576
L -7.900000 -9.537621
L -7.800000 -9.489989
L -7.700000 -9.439595
L -7.600000 -9.386342
L -7.500000 -9.330127
L -7.400000 -9.270831
L -7.300000 -9.208325
L -7.200000 -9.142463
L -7.100000 -9.073082
L -7.000000 -9.000000
L -6.900000 -8.923009
L -6.800000 -8.841875
L -6.700000 -8.756328
L -6.600000 -8.666061
L -6.500000 -8.570714
L -6.400000 -8.469870
L -6.300000 -8.363034
L -6.200000 -8.249615
L -6.100000 -8.128898
L -6.000000 -8.000000
L -5.900000 -7.861818
L -5.800000 -7.712932
L -5.700000 -7.551470
L -5.600000 -7.374868
L -5.500000 -7.179449
L -5.400000 -6.959592
L -5.300000 -6.705872
L -5.200000 -6.400000
L -5.100000 -5.994987
L -5.000000 -5.000000
L -5.000000 -5.000000
L -5.100000 -4.005013
L -5.200000 -3.600000
L -5.300000 -3.294128
L -5.400000 -3.040408
L -5.500000 -2.820551
L -5.600000 -2.625132
L -5.700000 -2.448530
L -5.800000 -2.287068
L -5.900000 -2.138182
L -6.000000 -2.000000
L -6.100000 -1.871102
L -6.200000 -1.750385
L -6.300000 -1.636966
L -6.400000 -1.530130
L -6.500000 -1.429286
L -6.600000 -1.333939
L -6.700000 -1.243672
L -6.800000 -1.158125
L -6.900000 -1.076991
L -7.000000 -1.000000
L -7.100000 -0.926918
L -7.200000 -0.857537
L -7.300000 -0.791675
L -7.400000 -0.729169
L -7.500000 -0.669873
L -7.600000 -0.613658
L -7.700000 -0.560405
L -7.800000 -0.510011
L -7.900000 -0.462379
L -8.000000 -0.417424
L -8.100000 -0.375068
L -8.200000 -0.335238
L -8.300000 -0.297873
L -8.400000 -0.262912
L -8.500000 -0.230304
L -8.600000 -0.200000
L -8.700000 -0.171957
L -8.800000 -0.146136
L -8.900000 -0.122501
L -9.000000 -0.101021
L -9.100000 -0.081667
L -9.200000 -0.064415
L -9.300000 -0.049242
L -9.400000 -0.036131
L -9.500000 -0.025063
L -9.600000 -0.016026
L -9.700000 -0.009008
L -9.800000 -0.004002
L -9.900000 -0.001000
L -10.000000 -0.000000
L -10.100000 -0.001000
L -10.200000 -0.004002
L -10.300000 -0.009008
L -10.400000 -0.016026
L -10.500000 -0.025063
L -10.600000 -0.036131
L -10.700000 -0.049242
L -10.800000 -0.064415
L -10.900000 -0.081667
L -11.000000 -0.101021
L -11.100000 -0.122501
L -11.200000 -0.146136
L -11.300000 -0.171957
L -11.400000 -0.200000
L -11.500000 -0.230304
L -11.600000 -0.262912
L -11.700000 -0.297873
L -11.800000 -0.335238
L -11.900000 -0.375068
L -12.000000 -0.417424
L -12.100000 -0.462379
L -12.200000 -0.510011
L -12.300000 -0.560405
L -12.400000 -0.613658
L -12.500000 -0.669873
L -12.600000 -0.729169
L -12.700000 -0.791675
L -12.800000 -0.857537
L -12.900000 -0.926918
L -13.000000 -1.000000
L -13.100000 -1.076991
L -13.200000 -1.158125
L -13.300000 -1.243672
L -13.400000 -1.333939
L -13.500000 -1.429286
L -13.600000 -1.530130
L -13.700000 -1.636966
L -13.800000 -1.750385
L -13.900000 -1.871102
L -14.000000 -2.000000
L -14.100000 -2.138182
L -14.200000 -2.287068
L -14.300000 -2.448530
L -14.400000 -2.625132
L -14.500000 -2.820551
L -14.600000 -3.040408
L -14.700000 -3.294128
L -14.800000 -3.600000
L -14.900000 -4.005013
L -15.000000 -5.000000
L -15.000000 -5.000000
"
stroke="rgb(0.000000 255.000000 0.000000)" stroke-width="0.500000" fill="none"/></svg>
