<svg viewBox="-25.000000 -25.000000 50.000000 50.000000">
<path d="
M 5.000000 -10.000000
L 5.000000 -10.000000
L 5.100000 -11.989975
L 5.200000 -12.800000
L 5.300000 -13.411744
L 5.400000 -13.919184
L 5.500000 -14.358899
L 5.600000 -14.749737
L 5.700000 -15.102940
L 5.800000 -15.425864
L 5.900000 -15.723635
L 6.000000 -16.000000
L 6.100000 -16.257795
L 6.200000 -16.499231
L 6.300000 -16.726069
L 6.400000 -16.939741
L 6.500000 -17.141428
L 6.600000 -17.332121
L 6.700000 -17.512656
L 6.800000 -17.683749
L 6.900000 -17.846018
L 7.000000 -18.000000
L 7.100000 -18.146165
L 7.200000 -18.284926
L 7.300000 -18.416650
L 7.400000 -18.541663
L 7.500000 -18.660254
L 7.600000 -18.772685
L 7.700000 -18.879189
L 7.800000 -18.979978
L 7.900000 -19.075241
L 8.000000 -19.165151
L 8.100000 -19.249865
L 8.200000 -19.329523
L 8.300000 -19.404254
L 8.400000 -19.474175
L 8.500000 -19.539392
L 8.600000 -19.600000
L 8.700000 -19.656086
L 8.800000 -19.707729
L 8.900000 -19.754999
L 9.000000 -19.797959
L 9.100000 -19.836666
L 9.200000 -19.871170
L 9.300000 -19.901515
L 9.400000 -19.927739
L 9.500000 -19.949874
L 9.600000 -19.967949
L 9.700000 -19.981984
L 9.800000 -19.991997
L 9.900000 -19.998000
L 10.000000 -20.000000
L 10.100000 -19.998000
L 10.200000 -19.991997
L 10.300000 -19.981984
L 10.400000 -19.967949
L 10.500000 -19.949874
L 10.600000 -19.927739
L 10.700000 -19.901515
L 10.800000 -19.871170
L 10.900000 -19.836666
L 11.000000 -19.797959
L 11.100000 -19.754999
L 11.200000 -19.707729
L 11.300000 -19.656086
L 11.400000 -19.600000
L 11.500000 -19.539392
L 11.600000 -19.474175
L 11.700000 -19.404254
L 11.800000 -19.329523
L 11.900000 -19.249865
L 12.000000 -19.165151
L 12.100000 -19.075241
L 12.200000 -18.979978
L 12.300000 -18.879189
L 12.400000 -18.772685
L 12.500000 -18.660254
L 12.600000 -18.541663
L 12.700000 -18.416650
L 12.800000 -18.284926
L 12.900000 -18.146165
L 13.000000 -18.000000
L 13.100000 -17.846018
L 13.200000 -17.683749
L 13.300000 -17.512656
L 13.400000 -17.332121
L 13.500000 -17.141428
L 13.600000 -16.939741
L 13.700000 -16.726069
L 13.800000 -16.499231
L 13.900000 -16.257795
L 14.000000 -16.000000
L 14.100000 -15.723635
L 14.200000 -15.425864
L 14.300000 -15.102940
L 14.400000 -14.749737
L 14.500000 -14.358899
L 14.600000 -13.919184
L 14.700000 -13.411744
L 14.800000 -12.800000
L 14.900000 -11.989975
L 15.000000 -10.000000
L 15.000000 -10.000000
L 14.900000 -8.010025
L 14.800000 -7.200000
L 14.700000 -6.588256
L 14.600000 -6.080816
L 14.500000 -5.641101
L 14.400000 -5.250263
L 14.300000 -4.897060
L 14.200000 -4.574136
L 14.100000 -4.276365
L 14.000000 -4.000000
L 13.900000 -3.742205
L 13.800000 -3.500769
L 13.700000 -3.273931
L 13.600000 -3.060259
L 13.500000 -2.858572
L 13.400000 -2.667879
L 13.300000 -2.487344
L 13.200000 -2.316251
L 13.100000 -2.153982
L 13.000000 -2.000000
L 12.900000 -1.853835
L 12.800000 -1.715074
L 12.700000 -1.583350
L 12.600000 -1.458337
L 12.500000 -1.339746
L 12.400000 -1.227315
L 12.300000 -1.120811
L 12.200000 -1.020022
L 12.100000 -0.924759
L 12.000000 -0.834849
L 11.900000 -0.750135
L 11.800000 -0.670477
L 11.700000 -0.595746
L 11.600000 -0.525825
L 11.500000 -0.460608
L 11.400000 -0.400000
L 11.300000 -0.343914
L 11.200000 -0.292271
L 11.100000 -0.245001
L 11.000000 -0.202041
L 10.900000 -0.163334
L 10.800000 -0.128830
L 10.700000 -0.098485
L 10.600000 -0.072261
L 10.500000 -0.050126
L 10.400000 -0.032051
L 10.300000 -0.018016
L 10.200000 -0.008003
L 10.100000 -0.002000
L 10.000000 -0.000000
L 9.900000 -0.002000
L 9.800000 -0.008003
L 9.700000 -0.018016
L 9.600000 -0.032051
L 9.500000 -0.050126
L 9.400000 -0.072261
L 9.300000 -0.098485
L 9.200000 -0.128830
L 9.100000 -0.163334
L 9.000000 -0.202041
L 8.900000 -0.245001
L 8.800000 -0.292271
L 8.700000 -0.343914
L 8.600000 -0.400000
L 8.500000 -0.460608
L 8.400000 -0.525825
L 8.300000 -0.595746
L 8.200000 -0.670477
L 8.100000 -0.750135
L 8.000000 -0.834849
L 7.900000 -0.924759
L 7.800000 -1.020022
L 7.700000 -1.120811
L 7.600000 -1.227315
L 7.500000 -1.339746
L 7.400000 -1.458337
L 7.300000 -1.583350
L 7.200000 -1.715074
L 7.100000 -1.853835
L 7.000000 -2.000000
L 6.900000 -2.153982
L 6.800000 -2.316251
L 6.700000 -2.487344
L 6.600000 -2.667879
L 6.500000 -2.858572
L 6.400000 -3.060259
L 6.300000 -3.273931
L 6.200000 -3.500769
L 6.100000 -3.742205
L 6.000000 -4.000000
L 5.900000 -4.276365
L 5.800000 -4.574136
L 5.700000 -4.897060
L 5.600000 -5.250263
L 5.500000 -5.641101
L 5.400000 -6.080816
L 5.300000 -6.588256
L 5.200000 -7.200000
L 5.100000 -8.010025
L 5.000000 -10.000000
L 5.000000 -10.000000
"
stroke="rgb(0.000000 0.000000 255.000000)" stroke-width="0.500000" fill="none"/></svg>
