<svg viewBox="-50.000000 -50.000000 100.000000 100.000000">
<text x="-1.000000" y="-19.500000" font-size="3">50</text>
<path d="
M -3.000000 -20.000000
L -3.000000 -20.000000
L -2.900000 -20.768115
L -2.800000 -21.077033
L -2.700000 -21.307670
L -2.600000 -21.496663
L -2.500000 -21.658312
L -2.400000 -21.800000
L -2.300000 -21.926136
L -2.200000 -22.039608
L -2.100000 -22.142429
L -2.000000 -22.236068
L -1.900000 -22.321637
L -1.800000 -22.400000
L -1.700000 -22.471841
L -1.600000 -22.537716
L -1.500000 -22.598076
L -1.400000 -22.653300
L -1.300000 -22.703701
L -1.200000 -22.749545
L -1.100000 -22.791057
L -1.000000 -22.828427
L -0.900000 -22.861818
L -0.800000 -22.891366
L -0.700000 -22.917190
L -0.600000 -22.939388
L -0.500000 -22.958040
L -0.400000 -22.973214
L -0.300000 -22.984962
L -0.200000 -22.993326
L -0.100000 -22.998333
L 0.000000 -23.000000
L 0.100000 -22.998333
L 0.200000 -22.993326
L 0.300000 -22.984962
L 0.400000 -22.973214
L 0.500000 -22.958040
L 0.600000 -22.939388
L 0.700000 -22.917190
L 0.800000 -22.891366
L 0.900000 -22.861818
L 1.000000 -22.828427
L 1.100000 -22.791057
L 1.200000 -22.749545
L 1.300000 -22.703701
L 1.400000 -22.653300
L 1.500000 -22.598076
L 1.600000 -22.537716
L 1.700000 -22.471841
L 1.800000 -22.400000
L 1.900000 -22.321637
L 2.000000 -22.236068
L 2.100000 -22.142429
L 2.200000 -22.039608
L 2.300000 -21.926136
L 2.400000 -21.800000
L 2.500000 -21.658312
L 2.600000 -21.496663
L 2.700000 -21.307670
L 2.800000 -21.077033
L 2.900000 -20.768115
L 3.000000 -20.000000
L 2.900000 -19.231885
L 2.800000 -18.922967
L 2.700000 -18.692330
L 2.600000 -18.503337
L 2.500000 -18.341688
L 2.400000 -18.200000
L 2.300000 -18.073864
L 2.200000 -17.960392
L 2.100000 -17.857571
L 2.000000 -17.763932
L 1.900000 -17.678363
L 1.800000 -17.600000
L 1.700000 -17.528159
L 1.600000 -17.462284
L 1.500000 -17.401924
L 1.400000 -17.346700
L 1.300000 -17.296299
L 1.200000 -17.250455
L 1.100000 -17.208943
L 1.000000 -17.171573
L 0.900000 -17.138182
L 0.800000 -17.108634
L 0.700000 -17.082810
L 0.600000 -17.060612
L 0.500000 -17.041960
L 0.400000 -17.026786
L 0.300000 -17.015038
L 0.200000 -17.006674
L 0.100000 -17.001667
L -0.000000 -17.000000
L -0.100000 -17.001667
L -0.200000 -17.006674
L -0.300000 -17.015038
L -0.400000 -17.026786
L -0.500000 -17.041960
L -0.600000 -17.060612
L -0.700000 -17.082810
L -0.800000 -17.108634
L -0.900000 -17.138182
L -1.000000 -17.171573
L -1.100000 -17.208943
L -1.200000 -17.250455
L -1.300000 -17.296299
L -1.400000 -17.346700
L -1.500000 -17.401924
L -1.600000 -17.462284
L -1.700000 -17.528159
L -1.800000 -17.600000
L -1.900000 -17.678363
L -2.000000 -17.763932
L -2.100000 -17.857571
L -2.200000 -17.960392
L -2.300000 -18.073864
L -2.400000 -18.200000
L -2.500000 -18.341688
L -2.600000 -18.503337
L -2.700000 -18.692330
L -2.800000 -18.922967
L -2.900000 -19.231885
L -3.000000 -20.000000
"
stroke="rgb(0.000000 0.000000 0.000000)" stroke-width="0.500000" fill="none"/><path d="
M -1.575966 -17.447289
L -1.575966 -17.447289
L -9.000000 -15.000000
"
stroke="rgb(0.000000 0.000000 0.000000)" stroke-width="0.500000" fill="none"/><text x="-10.000000" y="-11.500000" font-size="3">30</text>
<path d="
M -12.000000 -12.000000
L -12.000000 -12.000000
L -11.900000 -12.768115
L -11.800000 -13.077033
L -11.700000 -13.307670
L -11.600000 -13.496663
L -11.500000 -13.658312
L -11.400000 -13.800000
L -11.300000 -13.926136
L -11.200000 -14.039608
L -11.100000 -14.142429
L -11.000000 -14.236068
L -10.900000 -14.321637
L -10.800000 -14.400000
L -10.700000 -14.471841
L -10.600000 -14.537716
L -10.500000 -14.598076
L -10.400000 -14.653300
L -10.300000 -14.703701
L -10.200000 -14.749545
L -10.100000 -14.791057
L -10.000000 -14.828427
L -9.900000 -14.861818
L -9.800000 -14.891366
L -9.700000 -14.917190
L -9.600000 -14.939388
L -9.500000 -14.958040
L -9.400000 -14.973214
L -9.300000 -14.984962
L -9.200000 -14.993326
L -9.100000 -14.998333
L -9.000000 -15.000000
L -8.900000 -14.998333
L -8.800000 -14.993326
L -8.700000 -14.984962
L -8.600000 -14.973214
L -8.500000 -14.958040
L -8.400000 -14.939388
L -8.300000 -14.917190
L -8.200000 -14.891366
L -8.100000 -14.861818
L -8.000000 -14.828427
L -7.900000 -14.791057
L -7.800000 -14.749545
L -7.700000 -14.703701
L -7.600000 -14.653300
L -7.500000 -14.598076
L -7.400000 -14.537716
L -7.300000 -14.471841
L -7.200000 -14.400000
L -7.100000 -14.321637
L -7.000000 -14.236068
L -6.900000 -14.142429
L -6.800000 -14.039608
L -6.700000 -13.926136
L -6.600000 -13.800000
L -6.500000 -13.658312
L -6.400000 -13.496663
L -6.300000 -13.307670
L -6.200000 -13.077033
L -6.100000 -12.768115
L -6.000000 -12.000000
L -6.100000 -11.231885
L -6.200000 -10.922967
L -6.300000 -10.692330
L -6.400000 -10.503337
L -6.500000 -10.341688
L -6.600000 -10.200000
L -6.700000 -10.073864
L -6.800000 -9.960392
L -6.900000 -9.857571
L -7.000000 -9.763932
L -7.100000 -9.678363
L -7.200000 -9.600000
L -7.300000 -9.528159
L -7.400000 -9.462284
L -7.500000 -9.401924
L -7.600000 -9.346700
L -7.700000 -9.296299
L -7.800000 -9.250455
L -7.900000 -9.208943
L -8.000000 -9.171573
L -8.100000 -9.138182
L -8.200000 -9.108634
L -8.300000 -9.082810
L -8.400000 -9.060612
L -8.500000 -9.041960
L -8.600000 -9.026786
L -8.700000 -9.015038
L -8.800000 -9.006674
L -8.900000 -9.001667
L -9.000000 -9.000000
L -9.100000 -9.001667
L -9.200000 -9.006674
L -9.300000 -9.015038
L -9.400000 -9.026786
L -9.500000 -9.041960
L -9.600000 -9.060612
L -9.700000 -9.082810
L -9.800000 -9.108634
L -9.900000 -9.138182
L -10.000000 -9.171573
L -10.100000 -9.208943
L -10.200000 -9.250455
L -10.300000 -9.296299
L -10.400000 -9.346700
L -10.500000 -9.401924
L -10.600000 -9.462284
L -10.700000 -9.528159
L -10.800000 -9.600000
L -10.900000 -9.678363
L -11.000000 -9.763932
L -11.100000 -9.857571
L -11.200000 -9.960392
L -11.300000 -10.073864
L -11.400000 -10.200000
L -11.500000 -10.341688
L -11.600000 -10.503337
L -11.700000 -10.692330
L -11.800000 -10.922967
L -11.900000 -11.231885
L -12.000000 -12.000000
"
stroke="rgb(0.000000 0.000000 0.000000)" stroke-width="0.500000" fill="none"/><path d="
M -10.575966 -9.447289
L -10.575966 -9.447289
L -13.500000 -7.000000
"
stroke="rgb(0.000000 0.000000 0.000000)" stroke-width="0.500000" fill="none"/><text x="-14.500000" y="-3.500000" font-size="3">20</text>
<path d="
M -16.500000 -4.000000
L -16.500000 -4.000000
L -16.400000 -4.768115
L -16.300000 -5.077033
L -16.200000 -5.307670
L -16.100000 -5.496663
L -16.000000 -5.658312
L -15.900000 -5.800000
L -15.800000 -5.926136
L -15.700000 -6.039608
L -15.600000 -6.142429
L -15.500000 -6.236068
L -15.400000 -6.321637
L -15.300000 -6.400000
L -15.200000 -6.471841
L -15.100000 -6.537716
L -15.000000 -6.598076
L -14.900000 -6.653300
L -14.800000 -6.703701
L -14.700000 -6.749545
L -14.600000 -6.791057
L -14.500000 -6.828427
L -14.400000 -6.861818
L -14.300000 -6.891366
L -14.200000 -6.917190
L -14.100000 -6.939388
L -14.000000 -6.958040
L -13.900000 -6.973214
L -13.800000 -6.984962
L -13.700000 -6.993326
L -13.600000 -6.998333
L -13.500000 -7.000000
L -13.400000 -6.998333
L -13.300000 -6.993326
L -13.200000 -6.984962
L -13.100000 -6.973214
L -13.000000 -6.958040
L -12.900000 -6.939388
L -12.800000 -6.917190
L -12.700000 -6.891366
L -12.600000 -6.861818
L -12.500000 -6.828427
L -12.400000 -6.791057
L -12.300000 -6.749545
L -12.200000 -6.703701
L -12.100000 -6.653300
L -12.000000 -6.598076
L -11.900000 -6.537716
L -11.800000 -6.471841
L -11.700000 -6.400000
L -11.600000 -6.321637
L -11.500000 -6.236068
L -11.400000 -6.142429
L -11.300000 -6.039608
L -11.200000 -5.926136
L -11.100000 -5.800000
L -11.000000 -5.658312
L -10.900000 -5.496663
L -10.800000 -5.307670
L -10.700000 -5.077033
L -10.600000 -4.768115
L -10.500000 -4.000000
L -10.600000 -3.231885
L -10.700000 -2.922967
L -10.800000 -2.692330
L -10.900000 -2.503337
L -11.000000 -2.341688
L -11.100000 -2.200000
L -11.200000 -2.073864
L -11.300000 -1.960392
L -11.400000 -1.857571
L -11.500000 -1.763932
L -11.600000 -1.678363
L -11.700000 -1.600000
L -11.800000 -1.528159
L -11.900000 -1.462284
L -12.000000 -1.401924
L -12.100000 -1.346700
L -12.200000 -1.296299
L -12.300000 -1.250455
L -12.400000 -1.208943
L -12.500000 -1.171573
L -12.600000 -1.138182
L -12.700000 -1.108634
L -12.800000 -1.082810
L -12.900000 -1.060612
L -13.000000 -1.041960
L -13.100000 -1.026786
L -13.200000 -1.015038
L -13.300000 -1.006674
L -13.400000 -1.001667
L -13.500000 -1.000000
L -13.600000 -1.001667
L -13.700000 -1.006674
L -13.800000 -1.015038
L -13.900000 -1.026786
L -14.000000 -1.041960
L -14.100000 -1.060612
L -14.200000 -1.082810
L -14.300000 -1.108634
L -14.400000 -1.138182
L -14.500000 -1.171573
L -14.600000 -1.208943
L -14.700000 -1.250455
L -14.800000 -1.296299
L -14.900000 -1.346700
L -15.000000 -1.401924
L -15.100000 -1.462284
L -15.200000 -1.528159
L -15.300000 -1.600000
L -15.400000 -1.678363
L -15.500000 -1.763932
L -15.600000 -1.857571
L -15.700000 -1.960392
L -15.800000 -2.073864
L -15.900000 -2.200000
L -16.000000 -2.341688
L -16.100000 -2.503337
L -16.200000 -2.692330
L -16.300000 -2.922967
L -16.400000 -3.231885
L -16.500000 -4.000000
"
stroke="rgb(0.000000 0.000000 0.000000)" stroke-width="0.500000" fill="none"/><path d="
M -7.424034 -9.447289
L -7.424034 -9.447289
L -4.500000 -7.000000
"
stroke="rgb(0.000000 0.000000 0.000000)" stroke-width="0.500000" fill="none"/><text x="-5.500000" y="-3.500000" font-size="3">40</text>
<path d="
M -7.500000 -4.000000
L -7.500000 -4.000000
L -7.400000 -4.768115
L -7.300000 -5.077033
L -7.200000 -5.307670
L -7.100000 -5.496663
L -7.000000 -5.658312
L -6.900000 -5.800000
L -6.800000 -5.926136
L -6.700000 -6.039608
L -6.600000 -6.142429
L -6.500000 -6.236068
L -6.400000 -6.321637
L -6.300000 -6.400000
L -6.200000 -6.471841
L -6.100000 -6.537716
L -6.000000 -6.598076
L -5.900000 -6.653300
L -5.800000 -6.703701
L -5.700000 -6.749545
L -5.600000 -6.791057
L -5.500000 -6.828427
L -5.400000 -6.861818
L -5.300000 -6.891366
L -5.200000 -6.917190
L -5.100000 -6.939388
L -5.000000 -6.958040
L -4.900000 -6.973214
L -4.800000 -6.984962
L -4.700000 -6.993326
L -4.600000 -6.998333
L -4.500000 -7.000000
L -4.400000 -6.998333
L -4.300000 -6.993326
L -4.200000 -6.984962
L -4.100000 -6.973214
L -4.000000 -6.958040
L -3.900000 -6.939388
L -3.800000 -6.917190
L -3.700000 -6.891366
L -3.600000 -6.861818
L -3.500000 -6.828427
L -3.400000 -6.791057
L -3.300000 -6.749545
L -3.200000 -6.703701
L -3.100000 -6.653300
L -3.000000 -6.598076
L -2.900000 -6.537716
L -2.800000 -6.471841
L -2.700000 -6.400000
L -2.600000 -6.321637
L -2.500000 -6.236068
L -2.400000 -6.142429
L -2.300000 -6.039608
L -2.200000 -5.926136
L -2.100000 -5.800000
L -2.000000 -5.658312
L -1.900000 -5.496663
L -1.800000 -5.307670
L -1.700000 -5.077033
L -1.600000 -4.768115
L -1.500000 -4.000000
L -1.600000 -3.231885
L -1.700000 -2.922967
L -1.800000 -2.692330
L -1.900000 -2.503337
L -2.000000 -2.341688
L -2.100000 -2.200000
L -2.200000 -2.073864
L -2.300000 -1.960392
L -2.400000 -1.857571
L -2.500000 -1.763932
L -2.600000 -1.678363
L -2.700000 -1.600000
L -2.800000 -1.528159
L -2.900000 -1.462284
L -3.000000 -1.401924
L -3.100000 -1.346700
L -3.200000 -1.296299
L -3.300000 -1.250455
L -3.400000 -1.208943
L -3.500000 -1.171573
L -3.600000 -1.138182
L -3.700000 -1.108634
L -3.800000 -1.082810
L -3.900000 -1.060612
L -4.000000 -1.041960
L -4.100000 -1.026786
L -4.200000 -1.015038
L -4.300000 -1.006674
L -4.400000 -1.001667
L -4.500000 -1.000000
L -4.600000 -1.001667
L -4.700000 -1.006674
L -4.800000 -1.015038
L -4.900000 -1.026786
L -5.000000 -1.041960
L -5.100000 -1.060612
L -5.200000 -1.082810
L -5.300000 -1.108634
L -5.400000 -1.138182
L -5.500000 -1.171573
L -5.600000 -1.208943
L -5.700000 -1.250455
L -5.800000 -1.296299
L -5.900000 -1.346700
L -6.000000 -1.401924
L -6.100000 -1.462284
L -6.200000 -1.528159
L -6.300000 -1.600000
L -6.400000 -1.678363
L -6.500000 -1.763932
L -6.600000 -1.857571
L -6.700000 -1.960392
L -6.800000 -2.073864
L -6.900000 -2.200000
L -7.000000 -2.341688
L -7.100000 -2.503337
L -7.200000 -2.692330
L -7.300000 -2.922967
L -7.400000 -3.231885
L -7.500000 -4.000000
"
stroke="rgb(0.000000 0.000000 0.000000)" stroke-width="0.500000" fill="none"/><path d="
M 1.575966 -17.447289
L 1.575966 -17.447289
L 9.000000 -15.000000
"
stroke="rgb(0.000000 0.000000 0.000000)" stroke-width="0.500000" fill="none"/><text x="8.000000" y="-11.500000" font-size="3">70</text>
<path d="
M 6.000000 -12.000000
L 6.000000 -12.000000
L 6.100000 -12.768115
L 6.200000 -13.077033
L 6.300000 -13.307670
L 6.400000 -13.496663
L 6.500000 -13.658312
L 6.600000 -13.800000
L 6.700000 -13.926136
L 6.800000 -14.039608
L 6.900000 -14.142429
L 7.000000 -14.236068
L 7.100000 -14.321637
L 7.200000 -14.400000
L 7.300000 -14.471841
L 7.400000 -14.537716
L 7.500000 -14.598076
L 7.600000 -14.653300
L 7.700000 -14.703701
L 7.800000 -14.749545
L 7.900000 -14.791057
L 8.000000 -14.828427
L 8.100000 -14.861818
L 8.200000 -14.891366
L 8.300000 -14.917190
L 8.400000 -14.939388
L 8.500000 -14.958040
L 8.600000 -14.973214
L 8.700000 -14.984962
L 8.800000 -14.993326
L 8.900000 -14.998333
L 9.000000 -15.000000
L 9.100000 -14.998333
L 9.200000 -14.993326
L 9.300000 -14.984962
L 9.400000 -14.973214
L 9.500000 -14.958040
L 9.600000 -14.939388
L 9.700000 -14.917190
L 9.800000 -14.891366
L 9.900000 -14.861818
L 10.000000 -14.828427
L 10.100000 -14.791057
L 10.200000 -14.749545
L 10.300000 -14.703701
L 10.400000 -14.653300
L 10.500000 -14.598076
L 10.600000 -14.537716
L 10.700000 -14.471841
L 10.800000 -14.400000
L 10.900000 -14.321637
L 11.000000 -14.236068
L 11.100000 -14.142429
L 11.200000 -14.039608
L 11.300000 -13.926136
L 11.400000 -13.800000
L 11.500000 -13.658312
L 11.600000 -13.496663
L 11.700000 -13.307670
L 11.800000 -13.077033
L 11.900000 -12.768115
L 12.000000 -12.000000
L 11.900000 -11.231885
L 11.800000 -10.922967
L 11.700000 -10.692330
L 11.600000 -10.503337
L 11.500000 -10.341688
L 11.400000 -10.200000
L 11.300000 -10.073864
L 11.200000 -9.960392
L 11.100000 -9.857571
L 11.000000 -9.763932
L 10.900000 -9.678363
L 10.800000 -9.600000
L 10.700000 -9.528159
L 10.600000 -9.462284
L 10.500000 -9.401924
L 10.400000 -9.346700
L 10.300000 -9.296299
L 10.200000 -9.250455
L 10.100000 -9.208943
L 10.000000 -9.171573
L 9.900000 -9.138182
L 9.800000 -9.108634
L 9.700000 -9.082810
L 9.600000 -9.060612
L 9.500000 -9.041960
L 9.400000 -9.026786
L 9.300000 -9.015038
L 9.200000 -9.006674
L 9.100000 -9.001667
L 9.000000 -9.000000
L 8.900000 -9.001667
L 8.800000 -9.006674
L 8.700000 -9.015038
L 8.600000 -9.026786
L 8.500000 -9.041960
L 8.400000 -9.060612
L 8.300000 -9.082810
L 8.200000 -9.108634
L 8.100000 -9.138182
L 8.000000 -9.171573
L 7.900000 -9.208943
L 7.800000 -9.250455
L 7.700000 -9.296299
L 7.600000 -9.346700
L 7.500000 -9.401924
L 7.400000 -9.462284
L 7.300000 -9.528159
L 7.200000 -9.600000
L 7.100000 -9.678363
L 7.000000 -9.763932
L 6.900000 -9.857571
L 6.800000 -9.960392
L 6.700000 -10.073864
L 6.600000 -10.200000
L 6.500000 -10.341688
L 6.400000 -10.503337
L 6.300000 -10.692330
L 6.200000 -10.922967
L 6.100000 -11.231885
L 6.000000 -12.000000
"
stroke="rgb(0.000000 0.000000 0.000000)" stroke-width="0.500000" fill="none"/><path d="
M 7.424034 -9.447289
L 7.424034 -9.447289
L 4.500000 -7.000000
"
stroke="rgb(0.000000 0.000000 0.000000)" stroke-width="0.500000" fill="none"/><text x="3.500000" y="-3.500000" font-size="3">60</text>
<path d="
M 1.500000 -4.000000
L 1.500000 -4.000000
L 1.600000 -4.768115
L 1.700000 -5.077033
L 1.800000 -5.307670
L 1.900000 -5.496663
L 2.000000 -5.658312
L 2.100000 -5.800000
L 2.200000 -5.926136
L 2.300000 -6.039608
L 2.400000 -6.142429
L 2.500000 -6.236068
L 2.600000 -6.321637
L 2.700000 -6.400000
L 2.800000 -6.471841
L 2.900000 -6.537716
L 3.000000 -6.598076
L 3.100000 -6.653300
L 3.200000 -6.703701
L 3.300000 -6.749545
L 3.400000 -6.791057
L 3.500000 -6.828427
L 3.600000 -6.861818
L 3.700000 -6.891366
L 3.800000 -6.917190
L 3.900000 -6.939388
L 4.000000 -6.958040
L 4.100000 -6.973214
L 4.200000 -6.984962
L 4.300000 -6.993326
L 4.400000 -6.998333
L 4.500000 -7.000000
L 4.600000 -6.998333
L 4.700000 -6.993326
L 4.800000 -6.984962
L 4.900000 -6.973214
L 5.000000 -6.958040
L 5.100000 -6.939388
L 5.200000 -6.917190
L 5.300000 -6.891366
L 5.400000 -6.861818
L 5.500000 -6.828427
L 5.600000 -6.791057
L 5.700000 -6.749545
L 5.800000 -6.703701
L 5.900000 -6.653300
L 6.000000 -6.598076
L 6.100000 -6.537716
L 6.200000 -6.471841
L 6.300000 -6.400000
L 6.400000 -6.321637
L 6.500000 -6.236068
L 6.600000 -6.142429
L 6.700000 -6.039608
L 6.800000 -5.926136
L 6.900000 -5.800000
L 7.000000 -5.658312
L 7.100000 -5.496663
L 7.200000 -5.307670
L 7.300000 -5.077033
L 7.400000 -4.768115
L 7.500000 -4.000000
L 7.400000 -3.231885
L 7.300000 -2.922967
L 7.200000 -2.692330
L 7.100000 -2.503337
L 7.000000 -2.341688
L 6.900000 -2.200000
L 6.800000 -2.073864
L 6.700000 -1.960392
L 6.600000 -1.857571
L 6.500000 -1.763932
L 6.400000 -1.678363
L 6.300000 -1.600000
L 6.200000 -1.528159
L 6.100000 -1.462284
L 6.000000 -1.401924
L 5.900000 -1.346700
L 5.800000 -1.296299
L 5.700000 -1.250455
L 5.600000 -1.208943
L 5.500000 -1.171573
L 5.400000 -1.138182
L 5.300000 -1.108634
L 5.200000 -1.082810
L 5.100000 -1.060612
L 5.000000 -1.041960
L 4.900000 -1.026786
L 4.800000 -1.015038
L 4.700000 -1.006674
L 4.600000 -1.001667
L 4.500000 -1.000000
L 4.400000 -1.001667
L 4.300000 -1.006674
L 4.200000 -1.015038
L 4.100000 -1.026786
L 4.000000 -1.041960
L 3.900000 -1.060612
L 3.800000 -1.082810
L 3.700000 -1.108634
L 3.600000 -1.138182
L 3.500000 -1.171573
L 3.400000 -1.208943
L 3.300000 -1.250455
L 3.200000 -1.296299
L 3.100000 -1.346700
L 3.000000 -1.401924
L 2.900000 -1.462284
L 2.800000 -1.528159
L 2.700000 -1.600000
L 2.600000 -1.678363
L 2.500000 -1.763932
L 2.400000 -1.857571
L 2.300000 -1.960392
L 2.200000 -2.073864
L 2.100000 -2.200000
L 2.000000 -2.341688
L 1.900000 -2.503337
L 1.800000 -2.692330
L 1.700000 -2.922967
L 1.600000 -3.231885
L 1.500000 -4.000000
"
stroke="rgb(0.000000 0.000000 0.000000)" stroke-width="0.500000" fill="none"/><path d="
M 10.575966 -9.447289
L 10.575966 -9.447289
L 13.500000 -7.000000
"
stroke="rgb(0.000000 0.000000 0.000000)" stroke-width="0.500000" fill="none"/><text x="12.500000" y="-3.500000" font-size="3">80</text>
<path d="
M 10.500000 -4.000000
L 10.500000 -4.000000
L 10.600000 -4.768115
L 10.700000 -5.077033
L 10.800000 -5.307670
L 10.900000 -5.496663
L 11.000000 -5.658312
L 11.100000 -5.800000
L 11.200000 -5.926136
L 11.300000 -6.039608
L 11.400000 -6.142429
L 11.500000 -6.236068
L 11.600000 -6.321637
L 11.700000 -6.400000
L 11.800000 -6.471841
L 11.900000 -6.537716
L 12.000000 -6.598076
L 12.100000 -6.653300
L 12.200000 -6.703701
L 12.300000 -6.749545
L 12.400000 -6.791057
L 12.500000 -6.828427
L 12.600000 -6.861818
L 12.700000 -6.891366
L 12.800000 -6.917190
L 12.900000 -6.939388
L 13.000000 -6.958040
L 13.100000 -6.973214
L 13.200000 -6.984962
L 13.300000 -6.993326
L 13.400000 -6.998333
L 13.500000 -7.000000
L 13.600000 -6.998333
L 13.700000 -6.993326
L 13.800000 -6.984962
L 13.900000 -6.973214
L 14.000000 -6.958040
L 14.100000 -6.939388
L 14.200000 -6.917190
L 14.300000 -6.891366
L 14.400000 -6.861818
L 14.500000 -6.828427
L 14.600000 -6.791057
L 14.700000 -6.749545
L 14.800000 -6.703701
L 14.900000 -6.653300
L 15.000000 -6.598076
L 15.100000 -6.537716
L 15.200000 -6.471841
L 15.300000 -6.400000
L 15.400000 -6.321637
L 15.500000 -6.236068
L 15.600000 -6.142429
L 15.700000 -6.039608
L 15.800000 -5.926136
L 15.900000 -5.800000
L 16.000000 -5.658312
L 16.100000 -5.496663
L 16.200000 -5.307670
L 16.300000 -5.077033
L 16.400000 -4.768115
L 16.500000 -4.000000
L 16.400000 -3.231885
L 16.300000 -2.922967
L 16.200000 -2.692330
L 16.100000 -2.503337
L 16.000000 -2.341688
L 15.900000 -2.200000
L 15.800000 -2.073864
L 15.700000 -1.960392
L 15.600000 -1.857571
L 15.500000 -1.763932
L 15.400000 -1.678363
L 15.300000 -1.600000
L 15.200000 -1.528159
L 15.100000 -1.462284
L 15.000000 -1.401924
L 14.900000 -1.346700
L 14.800000 -1.296299
L 14.700000 -1.250455
L 14.600000 -1.208943
L 14.500000 -1.171573
L 14.400000 -1.138182
L 14.300000 -1.108634
L 14.200000 -1.082810
L 14.100000 -1.060612
L 14.000000 -1.041960
L 13.900000 -1.026786
L 13.800000 -1.015038
L 13.700000 -1.006674
L 13.600000 -1.001667
L 13.500000 -1.000000
L 13.400000 -1.001667
L 13.300000 -1.006674
L 13.200000 -1.015038
L 13.100000 -1.026786
L 13.000000 -1.041960
L 12.900000 -1.060612
L 12.800000 -1.082810
L 12.700000 -1.108634
L 12.600000 -1.138182
L 12.500000 -1.171573
L 12.400000 -1.208943
L 12.300000 -1.250455
L 12.200000 -1.296299
L 12.100000 -1.346700
L 12.000000 -1.401924
L 11.900000 -1.462284
L 11.800000 -1.528159
L 11.700000 -1.600000
L 11.600000 -1.678363
L 11.500000 -1.763932
L 11.400000 -1.857571
L 11.300000 -1.960392
L 11.200000 -2.073864
L 11.100000 -2.200000
L 11.000000 -2.341688
L 10.900000 -2.503337
L 10.800000 -2.692330
L 10.700000 -2.922967
L 10.600000 -3.231885
L 10.500000 -4.000000
"
stroke="rgb(0.000000 0.000000 0.000000)" stroke-width="0.500000" fill="none"/></svg>
