<svg viewBox="-250.000000 -250.000000 500.000000 500.000000">
<path d="
M -21.650635 25.000000
L -21.650635 25.000000
L -21.650635 24.382716
L -22.185219 24.074074
L -21.650635 23.765432
L -21.650635 23.148148
L -22.185219 22.839506
L -22.719802 23.148148
L -22.719802 22.530864
L -23.254386 22.222222
L -22.719802 21.913580
L -22.719802 21.296296
L -22.185219 21.604938
L -21.650635 21.296296
L -21.650635 20.679012
L -22.185219 20.370370
L -21.650635 20.061728
L -21.650635 19.444444
L -22.185219 19.135802
L -22.719802 19.444444
L -22.719802 18.827160
L -23.254386 18.518519
L -23.788969 18.827160
L -23.788969 19.444444
L -24.323553 19.135802
L -24.858137 19.444444
L -24.858137 18.827160
L -25.392720 18.518519
L -24.858137 18.209877
L -24.858137 17.592593
L -25.392720 17.283951
L -25.927304 17.592593
L -25.927304 16.975309
L -26.461887 16.666667
L -25.927304 16.358025
L -25.927304 15.740741
L -25.392720 16.049383
L -24.858137 15.740741
L -24.858137 15.123457
L -25.392720 14.814815
L -24.858137 14.506173
L -24.858137 13.888889
L -24.323553 14.197531
L -23.788969 13.888889
L -23.788969 14.506173
L -23.254386 14.814815
L -22.719802 14.506173
L -22.719802 13.888889
L -22.185219 14.197531
L -21.650635 13.888889
L -21.650635 13.271605
L -22.185219 12.962963
L -21.650635 12.654321
L -21.650635 12.037037
L -22.185219 11.728395
L -22.719802 12.037037
L -22.719802 11.419753
L -23.254386 11.111111
L -22.719802 10.802469
L -22.719802 10.185185
L -22.185219 10.493827
L -21.650635 10.185185
L -21.650635 9.567901
L -22.185219 9.259259
L -21.650635 8.950617
L -21.650635 8.333333
L -22.185219 8.024691
L -22.719802 8.333333
L -22.719802 7.716049
L -23.254386 7.407407
L -23.788969 7.716049
L -23.788969 8.333333
L -24.323553 8.024691
L -24.858137 8.333333
L -24.858137 7.716049
L -25.392720 7.407407
L -24.858137 7.098765
L -24.858137 6.481481
L -25.392720 6.172839
L -25.927304 6.481481
L -25.927304 5.864198
L -26.461887 5.555556
L -26.996471 5.864198
L -26.996471 6.481481
L -27.531055 6.172839
L -28.065638 6.481481
L -28.065638 7.098765
L -27.531055 7.407407
L -28.065638 7.716049
L -28.065638 8.333333
L -28.600222 8.024691
L -29.134805 8.333333
L -29.134805 7.716049
L -29.669389 7.407407
L -30.203972 7.716049
L -30.203972 8.333333
L -30.738556 8.024691
L -31.273140 8.333333
L -31.273140 7.716049
L -31.807723 7.407407
L -31.273140 7.098765
L -31.273140 6.481481
L -31.807723 6.172839
L -32.342307 6.481481
L -32.342307 5.864197
L -32.876890 5.555556
L -32.342307 5.246914
L -32.342307 4.629630
L -31.807723 4.938272
L -31.273140 4.629630
L -31.273140 4.012346
L -31.807723 3.703704
L -31.273140 3.395062
L -31.273140 2.777778
L -31.807723 2.469136
L -32.342307 2.777778
L -32.342307 2.160494
L -32.876890 1.851852
L -33.411474 2.160494
L -33.411474 2.777778
L -33.946057 2.469136
L -34.480641 2.777778
L -34.480641 2.160494
L -35.015225 1.851852
L -34.480641 1.543210
L -34.480641 0.925926
L -35.015225 0.617284
L -35.549808 0.925926
L -35.549808 0.308642
L -36.084392 -0.000000
L -35.549808 -0.308642
L -35.549808 -0.925926
L -35.015225 -0.617284
L -34.480641 -0.925926
L -34.480641 -1.543210
L -35.015225 -1.851852
L -34.480641 -2.160494
L -34.480641 -2.777778
L -33.946057 -2.469136
L -33.411474 -2.777778
L -33.411474 -2.160494
L -32.876890 -1.851852
L -32.342307 -2.160494
L -32.342307 -2.777778
L -31.807723 -2.469136
L -31.273140 -2.777778
L -31.273140 -3.395062
L -31.807723 -3.703704
L -31.273140 -4.012346
L -31.273140 -4.629630
L -31.807723 -4.938272
L -32.342307 -4.629630
L -32.342307 -5.246914
L -32.876890 -5.555556
L -32.342307 -5.864198
L -32.342307 -6.481481
L -31.807723 -6.172839
L -31.273140 -6.481481
L -31.273140 -7.098765
L -31.807723 -7.407407
L -31.273140 -7.716049
L -31.273140 -8.333333
L -30.738556 -8.024691
L -30.203972 -8.333333
L -30.203972 -7.716049
L -29.669389 -7.407407
L -29.134805 -7.716049
L -29.134805 -8.333333
L -28.600222 -8.024691
L -28.065638 -8.333333
L -28.065638 -7.716049
L -27.531054 -7.407407
L -28.065638 -7.098765
L -28.065638 -6.481481
L -27.531054 -6.172839
L -26.996471 -6.481481
L -26.996471 -5.864197
L -26.461887 -5.555555
L -25.927304 -5.864197
L -25.927304 -6.481481
L -25.392720 -6.172839
L -24.858137 -6.481481
L -24.858137 -7.098765
L -25.392720 -7.407407
L -24.858137 -7.716049
L -24.858137 -8.333333
L -24.323553 -8.024691
L -23.788969 -8.333333
L -23.788969 -7.716049
L -23.254386 -7.407407
L -22.719802 -7.716049
L -22.719802 -8.333333
L -22.185219 -8.024691
L -21.650635 -8.333333
L -21.650635 -8.950617
L -22.185219 -9.259259
L -21.650635 -9.567901
L -21.650635 -10.185185
L -22.185219 -10.493827
L -22.719802 -10.185185
L -22.719802 -10.802469
L -23.254386 -11.111111
L -22.719802 -11.419753
L -22.719802 -12.037037
L -22.185219 -11.728395
L -21.650635 -12.037037
L -21.650635 -12.654321
L -22.185219 -12.962963
L -21.650635 -13.271605
L -21.650635 -13.888889
L -22.185219 -14.197531
L -22.719802 -13.888889
L -22.719802 -14.506173
L -23.254386 -14.814815
L -23.788969 -14.506173
L -23.788969 -13.888889
L -24.323553 -14.197531
L -24.858137 -13.888889
L -24.858137 -14.506173
L -25.392720 -14.814815
L -24.858137 -15.123457
L -24.858137 -15.740741
L -25.392720 -16.049383
L -25.927304 -15.740741
L -25.927304 -16.358025
L -26.461887 -16.666667
L -25.927304 -16.975309
L -25.927304 -17.592593
L -25.392720 -17.283951
L -24.858137 -17.592593
L -24.858137 -18.209876
L -25.392720 -18.518518
L -24.858137 -18.827160
L -24.858137 -19.444444
L -24.323553 -19.135802
L -23.788969 -19.444444
L -23.788969 -18.827160
L -23.254386 -18.518518
L -22.719802 -18.827160
L -22.719802 -19.444444
L -22.185219 -19.135802
L -21.650635 -19.444444
L -21.650635 -20.061728
L -22.185219 -20.370370
L -21.650635 -20.679012
L -21.650635 -21.296296
L -22.185219 -21.604938
L -22.719802 -21.296296
L -22.719802 -21.913580
L -23.254386 -22.222222
L -22.719802 -22.530864
L -22.719802 -23.148148
L -22.185219 -22.839506
L -21.650635 -23.148148
L -21.650635 -23.765432
L -22.185219 -24.074074
L -21.650635 -24.382716
L -21.650635 -25.000000
L -21.116052 -24.691358
L -20.581468 -25.000000
L -20.581468 -24.382716
L -20.046884 -24.074074
L -19.512301 -24.382716
L -19.512301 -25.000000
L -18.977717 -24.691358
L -18.443134 -25.000000
L -18.443134 -24.382716
L -17.908550 -24.074074
L -18.443134 -23.765432
L -18.443134 -23.148148
L -17.908550 -22.839506
L -17.373966 -23.148148
L -17.373966 -22.530864
L -16.839383 -22.222222
L -16.304799 -22.530864
L -16.304799 -23.148148
L -15.770216 -22.839506
L -15.235632 -23.148148
L -15.235632 -23.765432
L -15.770216 -24.074074
L -15.235632 -24.382716
L -15.235632 -25.000000
L -14.701049 -24.691358
L -14.166465 -25.000000
L -14.166465 -24.382716
L -13.631881 -24.074074
L -13.097298 -24.382716
L -13.097298 -25.000000
L -12.562714 -24.691358
L -12.028131 -25.000000
L -12.028131 -24.382716
L -11.493547 -24.074074
L -12.028131 -23.765432
L -12.028131 -23.148148
L -11.493547 -22.839506
L -10.958963 -23.148148
L -10.958963 -22.530864
L -10.424380 -22.222222
L -10.958963 -21.913580
L -10.958963 -21.296296
L -11.493547 -21.604938
L -12.028131 -21.296296
L -12.028131 -20.679012
L -11.493547 -20.370370
L -12.028131 -20.061728
L -12.028131 -19.444444
L -11.493547 -19.135802
L -10.958963 -19.444444
L -10.958963 -18.827160
L -10.424380 -18.518519
L -9.889796 -18.827160
L -9.889796 -19.444444
L -9.355213 -19.135802
L -8.820629 -19.444444
L -8.820629 -18.827160
L -8.286046 -18.518519
L -8.820629 -18.209877
L -8.820629 -17.592593
L -8.286046 -17.283951
L -7.751462 -17.592593
L -7.751462 -16.975309
L -7.216878 -16.666667
L -6.682295 -16.975309
L -6.682295 -17.592593
L -6.147711 -17.283951
L -5.613128 -17.592593
L -5.613128 -18.209877
L -6.147711 -18.518519
L -5.613128 -18.827160
L -5.613128 -19.444444
L -5.078544 -19.135802
L -4.543960 -19.444444
L -4.543960 -18.827160
L -4.009377 -18.518519
L -3.474793 -18.827160
L -3.474793 -19.444444
L -2.940210 -19.135802
L -2.405626 -19.444444
L -2.405626 -20.061728
L -2.940210 -20.370370
L -2.405626 -20.679012
L -2.405626 -21.296296
L -2.940210 -21.604938
L -3.474793 -21.296296
L -3.474793 -21.913580
L -4.009377 -22.222222
L -3.474793 -22.530864
L -3.474793 -23.148148
L -2.940210 -22.839506
L -2.405626 -23.148148
L -2.405626 -23.765432
L -2.940210 -24.074074
L -2.405626 -24.382716
L -2.405626 -25.000000
L -1.871043 -24.691358
L -1.336459 -25.000000
L -1.336459 -24.382716
L -0.801875 -24.074074
L -0.267292 -24.382716
L -0.267292 -25.000000
L 0.267292 -24.691358
L 0.801875 -25.000000
L 0.801875 -24.382716
L 1.336459 -24.074074
L 0.801875 -23.765432
L 0.801875 -23.148148
L 1.336459 -22.839506
L 1.871043 -23.148148
L 1.871043 -22.530864
L 2.405626 -22.222222
L 2.940210 -22.530864
L 2.940210 -23.148148
L 3.474793 -22.839506
L 4.009377 -23.148148
L 4.009377 -23.765432
L 3.474793 -24.074074
L 4.009377 -24.382716
L 4.009377 -25.000000
L 4.543960 -24.691358
L 5.078544 -25.000000
L 5.078544 -24.382716
L 5.613128 -24.074074
L 6.147711 -24.382716
L 6.147711 -25.000000
L 6.682295 -24.691358
L 7.216878 -25.000000
L 7.216878 -24.382716
L 7.751462 -24.074074
L 7.216878 -23.765432
L 7.216878 -23.148148
L 7.751462 -22.839506
L 8.286046 -23.148148
L 8.286046 -22.530864
L 8.820629 -22.222222
L 8.286046 -21.913580
L 8.286046 -21.296296
L 7.751462 -21.604938
L 7.216878 -21.296296
L 7.216878 -20.679012
L 7.751462 -20.370370
L 7.216878 -20.061728
L 7.216878 -19.444444
L 7.751462 -19.135802
L 8.286046 -19.444444
L 8.286045 -18.827160
L 8.820629 -18.518518
L 9.355213 -18.827160
L 9.355213 -19.444444
L 9.889796 -19.135802
L 10.424380 -19.444444
L 10.424380 -18.827160
L 10.958963 -18.518518
L 10.424380 -18.209876
L 10.424380 -17.592593
L 10.958963 -17.283951
L 11.493547 -17.592593
L 11.493547 -16.975309
L 12.028131 -16.666667
L 11.493547 -16.358025
L 11.493547 -15.740741
L 10.958963 -16.049383
L 10.424380 -15.740741
L 10.424380 -15.123457
L 10.958963 -14.814815
L 10.424380 -14.506173
L 10.424380 -13.888889
L 9.889796 -14.197531
L 9.355213 -13.888889
L 9.355213 -14.506173
L 8.820629 -14.814815
L 8.286045 -14.506173
L 8.286045 -13.888889
L 7.751462 -14.197531
L 7.216878 -13.888889
L 7.216878 -13.271605
L 7.751462 -12.962963
L 7.216878 -12.654321
L 7.216878 -12.037037
L 7.751462 -11.728395
L 8.286045 -12.037037
L 8.286045 -11.419753
L 8.820629 -11.111111
L 8.286045 -10.802469
L 8.286045 -10.185185
L 7.751462 -10.493827
L 7.216878 -10.185185
L 7.216878 -9.567901
L 7.751462 -9.259259
L 7.216878 -8.950617
L 7.216878 -8.333333
L 7.751462 -8.024691
L 8.286045 -8.333333
L 8.286045 -7.716049
L 8.820629 -7.407407
L 9.355213 -7.716049
L 9.355213 -8.333333
L 9.889796 -8.024691
L 10.424380 -8.333333
L 10.424380 -7.716049
L 10.958963 -7.407407
L 10.424380 -7.098765
L 10.424380 -6.481481
L 10.958963 -6.172840
L 11.493547 -6.481481
L 11.493547 -5.864198
L 12.028131 -5.555556
L 12.562714 -5.864198
L 12.562714 -6.481481
L 13.097298 -6.172840
L 13.631881 -6.481481
L 13.631881 -7.098765
L 13.097298 -7.407407
L 13.631881 -7.716049
L 13.631881 -8.333333
L 14.166465 -8.024691
L 14.701048 -8.333333
L 14.701048 -7.716049
L 15.235632 -7.407407
L 15.770216 -7.716049
L 15.770216 -8.333333
L 16.304799 -8.024691
L 16.839383 -8.333333
L 16.839383 -7.716049
L 17.373966 -7.407407
L 16.839383 -7.098765
L 16.839383 -6.481481
L 17.373966 -6.172840
L 17.908550 -6.481481
L 17.908550 -5.864198
L 18.443134 -5.555556
L 17.908550 -5.246914
L 17.908550 -4.629630
L 17.373966 -4.938272
L 16.839383 -4.629630
L 16.839383 -4.012346
L 17.373966 -3.703704
L 16.839383 -3.395062
L 16.839383 -2.777778
L 17.373966 -2.469136
L 17.908550 -2.777778
L 17.908550 -2.160494
L 18.443134 -1.851852
L 18.977717 -2.160494
L 18.977717 -2.777778
L 19.512301 -2.469136
L 20.046884 -2.777778
L 20.046884 -2.160494
L 20.581468 -1.851852
L 20.046884 -1.543210
L 20.046884 -0.925926
L 20.581468 -0.617284
L 21.116051 -0.925926
L 21.116051 -0.308642
L 21.650635 -0.000000
L 21.116052 0.308642
L 21.116052 0.925926
L 20.581468 0.617284
L 20.046884 0.925926
L 20.046884 1.543210
L 20.581468 1.851852
L 20.046884 2.160494
L 20.046884 2.777778
L 19.512301 2.469136
L 18.977717 2.777778
L 18.977717 2.160494
L 18.443134 1.851852
L 17.908550 2.160494
L 17.908550 2.777778
L 17.373966 2.469136
L 16.839383 2.777778
L 16.839383 3.395062
L 17.373966 3.703704
L 16.839383 4.012346
L 16.839383 4.629630
L 17.373966 4.938272
L 17.908550 4.629630
L 17.908550 5.246914
L 18.443134 5.555556
L 17.908550 5.864198
L 17.908550 6.481481
L 17.373966 6.172840
L 16.839383 6.481481
L 16.839383 7.098765
L 17.373966 7.407407
L 16.839383 7.716049
L 16.839383 8.333333
L 16.304799 8.024691
L 15.770216 8.333333
L 15.770216 7.716049
L 15.235632 7.407407
L 14.701048 7.716049
L 14.701048 8.333333
L 14.166465 8.024691
L 13.631881 8.333333
L 13.631881 7.716049
L 13.097298 7.407407
L 13.631881 7.098765
L 13.631881 6.481481
L 13.097298 6.172839
L 12.562714 6.481481
L 12.562714 5.864198
L 12.028131 5.555556
L 11.493547 5.864198
L 11.493547 6.481481
L 10.958963 6.172839
L 10.424380 6.481481
L 10.424380 7.098765
L 10.958963 7.407407
L 10.424380 7.716049
L 10.424380 8.333333
L 9.889796 8.024691
L 9.355213 8.333333
L 9.355213 7.716049
L 8.820629 7.407407
L 8.286046 7.716049
L 8.286046 8.333333
L 7.751462 8.024691
L 7.216878 8.333333
L 7.216878 8.950617
L 7.751462 9.259259
L 7.216878 9.567901
L 7.216878 10.185185
L 7.751462 10.493827
L 8.286046 10.185185
L 8.286046 10.802469
L 8.820629 11.111111
L 8.286046 11.419753
L 8.286046 12.037037
L 7.751462 11.728395
L 7.216878 12.037037
L 7.216878 12.654321
L 7.751462 12.962963
L 7.216878 13.271605
L 7.216878 13.888889
L 7.751462 14.197531
L 8.286046 13.888889
L 8.286045 14.506173
L 8.820629 14.814815
L 9.355213 14.506173
L 9.355213 13.888889
L 9.889796 14.197531
L 10.424380 13.888889
L 10.424380 14.506173
L 10.958963 14.814815
L 10.424380 15.123457
L 10.424380 15.740741
L 10.958963 16.049383
L 11.493547 15.740741
L 11.493547 16.358025
L 12.028131 16.666667
L 11.493547 16.975309
L 11.493547 17.592593
L 10.958963 17.283951
L 10.424380 17.592593
L 10.424380 18.209877
L 10.958963 18.518519
L 10.424380 18.827161
L 10.424380 19.444444
L 9.889796 19.135802
L 9.355213 19.444444
L 9.355213 18.827161
L 8.820629 18.518519
L 8.286045 18.827161
L 8.286045 19.444444
L 7.751462 19.135802
L 7.216878 19.444444
L 7.216878 20.061728
L 7.751462 20.370370
L 7.216878 20.679012
L 7.216878 21.296296
L 7.751462 21.604938
L 8.286045 21.296296
L 8.286045 21.913580
L 8.820629 22.222222
L 8.286045 22.530864
L 8.286045 23.148148
L 7.751462 22.839506
L 7.216878 23.148148
L 7.216878 23.765432
L 7.751462 24.074074
L 7.216878 24.382716
L 7.216878 25.000000
L 6.682295 24.691358
L 6.147711 25.000000
L 6.147711 24.382716
L 5.613128 24.074074
L 5.078544 24.382716
L 5.078544 25.000000
L 4.543960 24.691358
L 4.009377 25.000000
L 4.009377 24.382716
L 3.474793 24.074074
L 4.009377 23.765432
L 4.009377 23.148148
L 3.474793 22.839506
L 2.940210 23.148148
L 2.940210 22.530864
L 2.405626 22.222222
L 1.871042 22.530864
L 1.871042 23.148148
L 1.336459 22.839506
L 0.801875 23.148148
L 0.801875 23.765432
L 1.336459 24.074074
L 0.801875 24.382716
L 0.801875 25.000000
L 0.267292 24.691358
L -0.267292 25.000000
L -0.267292 24.382716
L -0.801875 24.074074
L -1.336459 24.382716
L -1.336459 25.000000
L -1.871043 24.691358
L -2.405626 25.000000
L -2.405626 24.382716
L -2.940210 24.074074
L -2.405626 23.765432
L -2.405626 23.148148
L -2.940210 22.839506
L -3.474793 23.148148
L -3.474793 22.530864
L -4.009377 22.222222
L -3.474793 21.913580
L -3.474793 21.296296
L -2.940210 21.604938
L -2.405626 21.296296
L -2.405626 20.679012
L -2.940210 20.370370
L -2.405626 20.061728
L -2.405626 19.444444
L -2.940210 19.135802
L -3.474793 19.444444
L -3.474793 18.827160
L -4.009377 18.518518
L -4.543961 18.827160
L -4.543961 19.444444
L -5.078544 19.135802
L -5.613128 19.444444
L -5.613128 18.827160
L -6.147711 18.518518
L -5.613128 18.209876
L -5.613128 17.592593
L -6.147711 17.283951
L -6.682295 17.592593
L -6.682295 16.975309
L -7.216878 16.666667
L -7.751462 16.975309
L -7.751462 17.592593
L -8.286046 17.283951
L -8.820629 17.592593
L -8.820629 18.209877
L -8.286046 18.518518
L -8.820629 18.827160
L -8.820629 19.444444
L -9.355213 19.135802
L -9.889796 19.444444
L -9.889796 18.827160
L -10.424380 18.518518
L -10.958964 18.827160
L -10.958963 19.444444
L -11.493547 19.135802
L -12.028131 19.444444
L -12.028131 20.061728
L -11.493547 20.370370
L -12.028131 20.679012
L -12.028131 21.296296
L -11.493547 21.604938
L -10.958963 21.296296
L -10.958964 21.913580
L -10.424380 22.222222
L -10.958964 22.530864
L -10.958964 23.148148
L -11.493547 22.839506
L -12.028131 23.148148
L -12.028131 23.765432
L -11.493547 24.074074
L -12.028131 24.382716
L -12.028131 25.000000
L -12.562714 24.691358
L -13.097298 25.000000
L -13.097298 24.382716
L -13.631881 24.074074
L -14.166465 24.382716
L -14.166465 25.000000
L -14.701049 24.691358
L -15.235632 25.000000
L -15.235632 24.382716
L -15.770216 24.074074
L -15.235632 23.765432
L -15.235632 23.148148
L -15.770216 22.839506
L -16.304799 23.148148
L -16.304799 22.530864
L -16.839383 22.222222
L -17.373966 22.530864
L -17.373966 23.148148
L -17.908550 22.839506
L -18.443134 23.148148
L -18.443134 23.765432
L -17.908550 24.074074
L -18.443134 24.382716
L -18.443134 25.000000
L -18.977717 24.691358
L -19.512301 25.000000
L -19.512301 24.382716
L -20.046884 24.074074
L -20.581468 24.382716
L -20.581468 25.000000
L -21.116052 24.691358
L -21.650635 25.000000
"
stroke="rgb(0.000000 0.000000 0.000000)" stroke-width="0.500000" fill="none"/></svg>
