<svg viewBox="-250.000000 -250.000000 500.000000 500.000000">
<path d="
M -86.602540 100.000000
L -86.602540 100.000000
L -86.602540 97.530864
L -88.740875 96.296296
L -86.602540 95.061728
L -86.602540 92.592593
L -88.740875 91.358025
L -90.879209 92.592593
L -90.879209 90.123457
L -93.017543 88.888889
L -90.879209 87.654321
L -90.879209 85.185185
L -88.740875 86.419753
L -86.602540 85.185185
L -86.602540 82.716049
L -88.740875 81.481482
L -86.602540 80.246914
L -86.602540 77.777778
L -88.740875 76.543210
L -90.879209 77.777778
L -90.879209 75.308642
L -93.017543 74.074074
L -95.155878 75.308642
L -95.155878 77.777778
L -97.294212 76.543210
L -99.432546 77.777778
L -99.432546 75.308642
L -101.570881 74.074074
L -99.432546 72.839506
L -99.432546 70.370370
L -101.570881 69.135802
L -103.709215 70.370370
L -103.709215 67.901235
L -105.847549 66.666667
L -103.709215 65.432099
L -103.709215 62.962963
L -101.570881 64.197531
L -99.432546 62.962963
L -99.432546 60.493827
L -101.570881 59.259259
L -99.432546 58.024691
L -99.432546 55.555556
L -97.294212 56.790123
L -95.155878 55.555556
L -95.155878 58.024691
L -93.017543 59.259259
L -90.879209 58.024691
L -90.879209 55.555556
L -88.740875 56.790124
L -86.602540 55.555556
L -86.602540 53.086420
L -88.740875 51.851852
L -86.602540 50.617284
L -86.602540 48.148148
L -88.740875 46.913580
L -90.879209 48.148148
L -90.879209 45.679012
L -93.017543 44.444445
L -90.879209 43.209877
L -90.879209 40.740741
L -88.740875 41.975309
L -86.602540 40.740741
L -86.602540 38.271605
L -88.740875 37.037037
L -86.602540 35.802469
L -86.602540 33.333333
L -88.740875 32.098765
L -90.879209 33.333333
L -90.879209 30.864198
L -93.017543 29.629630
L -95.155878 30.864198
L -95.155878 33.333333
L -97.294212 32.098765
L -99.432546 33.333333
L -99.432546 30.864197
L -101.570881 29.629630
L -99.432546 28.395062
L -99.432546 25.925926
L -101.570881 24.691358
L -103.709215 25.925926
L -103.709215 23.456790
L -105.847549 22.222222
L -107.985884 23.456790
L -107.985884 25.925926
L -110.124218 24.691358
L -112.262552 25.925926
L -112.262552 28.395062
L -110.124218 29.629630
L -112.262552 30.864197
L -112.262552 33.333333
L -114.400887 32.098765
L -116.539221 33.333333
L -116.539221 30.864197
L -118.677555 29.629630
L -120.815890 30.864197
L -120.815890 33.333333
L -122.954224 32.098765
L -125.092558 33.333333
L -125.092558 30.864197
L -127.230893 29.629629
L -125.092558 28.395062
L -125.092558 25.925926
L -127.230893 24.691358
L -129.369227 25.925926
L -129.369227 23.456790
L -131.507561 22.222222
L -129.369227 20.987654
L -129.369227 18.518518
L -127.230893 19.753086
L -125.092558 18.518518
L -125.092558 16.049383
L -127.230893 14.814815
L -125.092558 13.580247
L -125.092558 11.111111
L -127.230893 9.876543
L -129.369227 11.111111
L -129.369227 8.641975
L -131.507561 7.407407
L -133.645896 8.641975
L -133.645896 11.111111
L -135.784230 9.876543
L -137.922564 11.111111
L -137.922564 8.641975
L -140.060899 7.407407
L -137.922564 6.172839
L -137.922564 3.703704
L -140.060899 2.469136
L -142.199233 3.703704
L -142.199233 1.234568
L -144.337567 -0.000000
L -142.199233 -1.234568
L -142.199233 -3.703704
L -140.060899 -2.469136
L -137.922564 -3.703704
L -137.922564 -6.172840
L -140.060899 -7.407407
L -137.922564 -8.641975
L -137.922564 -11.111111
L -135.784230 -9.876543
L -133.645896 -11.111111
L -133.645896 -8.641975
L -131.507561 -7.407407
L -129.369227 -8.641975
L -129.369227 -11.111111
L -127.230893 -9.876543
L -125.092558 -11.111111
L -125.092558 -13.580247
L -127.230893 -14.814815
L -125.092558 -16.049383
L -125.092558 -18.518518
L -127.230892 -19.753086
L -129.369227 -18.518519
L -129.369227 -20.987654
L -131.507561 -22.222222
L -129.369227 -23.456790
L -129.369227 -25.925926
L -127.230892 -24.691358
L -125.092558 -25.925926
L -125.092558 -28.395062
L -127.230892 -29.629630
L -125.092558 -30.864197
L -125.092558 -33.333333
L -122.954224 -32.098765
L -120.815889 -33.333333
L -120.815889 -30.864197
L -118.677555 -29.629630
L -116.539221 -30.864197
L -116.539221 -33.333333
L -114.400886 -32.098765
L -112.262552 -33.333333
L -112.262552 -30.864197
L -110.124218 -29.629629
L -112.262552 -28.395062
L -112.262552 -25.925926
L -110.124218 -24.691358
L -107.985884 -25.925926
L -107.985884 -23.456790
L -105.847549 -22.222222
L -103.709215 -23.456790
L -103.709215 -25.925926
L -101.570881 -24.691358
L -99.432546 -25.925926
L -99.432546 -28.395061
L -101.570881 -29.629629
L -99.432546 -30.864197
L -99.432546 -33.333333
L -97.294212 -32.098765
L -95.155878 -33.333333
L -95.155878 -30.864197
L -93.017543 -29.629629
L -90.879209 -30.864197
L -90.879209 -33.333333
L -88.740875 -32.098765
L -86.602540 -33.333333
L -86.602540 -35.802469
L -88.740874 -37.037037
L -86.602540 -38.271605
L -86.602540 -40.740740
L -88.740874 -41.975308
L -90.879209 -40.740740
L -90.879209 -43.209876
L -93.017543 -44.444444
L -90.879209 -45.679012
L -90.879209 -48.148148
L -88.740874 -46.913580
L -86.602540 -48.148148
L -86.602540 -50.617284
L -88.740875 -51.851852
L -86.602540 -53.086419
L -86.602540 -55.555555
L -88.740875 -56.790123
L -90.879209 -55.555555
L -90.879209 -58.024691
L -93.017543 -59.259259
L -95.155878 -58.024691
L -95.155878 -55.555555
L -97.294212 -56.790123
L -99.432546 -55.555555
L -99.432546 -58.024691
L -101.570881 -59.259259
L -99.432546 -60.493827
L -99.432546 -62.962963
L -101.570881 -64.197531
L -103.709215 -62.962963
L -103.709215 -65.432099
L -105.847549 -66.666666
L -103.709215 -67.901234
L -103.709215 -70.370370
L -101.570881 -69.135802
L -99.432546 -70.370370
L -99.432546 -72.839506
L -101.570881 -74.074074
L -99.432546 -75.308642
L -99.432546 -77.777778
L -97.294212 -76.543210
L -95.155878 -77.777778
L -95.155878 -75.308642
L -93.017543 -74.074074
L -90.879209 -75.308642
L -90.879209 -77.777778
L -88.740875 -76.543210
L -86.602540 -77.777778
L -86.602540 -80.246913
L -88.740875 -81.481481
L -86.602540 -82.716049
L -86.602540 -85.185185
L -88.740875 -86.419753
L -90.879209 -85.185185
L -90.879209 -87.654321
L -93.017543 -88.888889
L -90.879209 -90.123457
L -90.879209 -92.592592
L -88.740875 -91.358024
L -86.602540 -92.592592
L -86.602540 -95.061728
L -88.740875 -96.296296
L -86.602540 -97.530864
L -86.602540 -100.000000
L -84.464206 -98.765432
L -82.325872 -100.000000
L -82.325872 -97.530864
L -80.187537 -96.296296
L -78.049203 -97.530864
L -78.049203 -100.000000
L -75.910869 -98.765432
L -73.772534 -100.000000
L -73.772534 -97.530864
L -71.634200 -96.296296
L -73.772534 -95.061728
L -73.772534 -92.592593
L -71.634200 -91.358025
L -69.495866 -92.592593
L -69.495866 -90.123457
L -67.357531 -88.888889
L -65.219197 -90.123457
L -65.219197 -92.592593
L -63.080863 -91.358025
L -60.942528 -92.592593
L -60.942528 -95.061728
L -63.080863 -96.296296
L -60.942528 -97.530864
L -60.942528 -100.000000
L -58.804194 -98.765432
L -56.665860 -100.000000
L -56.665860 -97.530864
L -54.527525 -96.296296
L -52.389191 -97.530864
L -52.389191 -100.000000
L -50.250857 -98.765432
L -48.112522 -100.000000
L -48.112522 -97.530864
L -45.974188 -96.296296
L -48.112522 -95.061728
L -48.112522 -92.592593
L -45.974188 -91.358025
L -43.835854 -92.592593
L -43.835854 -90.123457
L -41.697520 -88.888889
L -43.835854 -87.654321
L -43.835854 -85.185185
L -45.974188 -86.419753
L -48.112523 -85.185185
L -48.112523 -82.716049
L -45.974188 -81.481481
L -48.112523 -80.246914
L -48.112523 -77.777778
L -45.974188 -76.543210
L -43.835854 -77.777778
L -43.835854 -75.308642
L -41.697520 -74.074074
L -39.559185 -75.308642
L -39.559185 -77.777778
L -37.420851 -76.543210
L -35.282517 -77.777778
L -35.282517 -75.308642
L -33.144182 -74.074074
L -35.282517 -72.839506
L -35.282517 -70.370370
L -33.144182 -69.135802
L -31.005848 -70.370370
L -31.005848 -67.901235
L -28.867513 -66.666667
L -26.729179 -67.901235
L -26.729179 -70.370370
L -24.590845 -69.135802
L -22.452510 -70.370370
L -22.452510 -72.839506
L -24.590845 -74.074074
L -22.452510 -75.308642
L -22.452510 -77.777778
L -20.314176 -76.543210
L -18.175842 -77.777778
L -18.175842 -75.308642
L -16.037507 -74.074074
L -13.899173 -75.308642
L -13.899173 -77.777778
L -11.760839 -76.543210
L -9.622504 -77.777778
L -9.622504 -80.246914
L -11.760839 -81.481481
L -9.622504 -82.716049
L -9.622504 -85.185185
L -11.760839 -86.419753
L -13.899173 -85.185185
L -13.899173 -87.654321
L -16.037507 -88.888889
L -13.899173 -90.123457
L -13.899173 -92.592593
L -11.760839 -91.358025
L -9.622504 -92.592593
L -9.622504 -95.061728
L -11.760839 -96.296296
L -9.622504 -97.530864
L -9.622504 -100.000000
L -7.484170 -98.765432
L -5.345836 -100.000000
L -5.345836 -97.530864
L -3.207501 -96.296296
L -1.069167 -97.530864
L -1.069167 -100.000000
L 1.069167 -98.765432
L 3.207502 -100.000000
L 3.207502 -97.530864
L 5.345836 -96.296296
L 3.207501 -95.061728
L 3.207501 -92.592592
L 5.345836 -91.358025
L 7.484170 -92.592592
L 7.484170 -90.123457
L 9.622504 -88.888889
L 11.760839 -90.123457
L 11.760839 -92.592592
L 13.899173 -91.358025
L 16.037507 -92.592592
L 16.037507 -95.061728
L 13.899173 -96.296296
L 16.037507 -97.530864
L 16.037507 -100.000000
L 18.175842 -98.765432
L 20.314176 -100.000000
L 20.314176 -97.530864
L 22.452510 -96.296296
L 24.590845 -97.530864
L 24.590845 -100.000000
L 26.729179 -98.765432
L 28.867513 -100.000000
L 28.867513 -97.530864
L 31.005848 -96.296296
L 28.867513 -95.061728
L 28.867513 -92.592593
L 31.005848 -91.358025
L 33.144182 -92.592592
L 33.144182 -90.123457
L 35.282516 -88.888889
L 33.144182 -87.654321
L 33.144182 -85.185185
L 31.005848 -86.419753
L 28.867513 -85.185185
L 28.867513 -82.716049
L 31.005848 -81.481481
L 28.867513 -80.246913
L 28.867513 -77.777778
L 31.005848 -76.543210
L 33.144182 -77.777778
L 33.144182 -75.308642
L 35.282516 -74.074074
L 37.420851 -75.308642
L 37.420851 -77.777778
L 39.559185 -76.543210
L 41.697519 -77.777778
L 41.697519 -75.308642
L 43.835854 -74.074074
L 41.697519 -72.839506
L 41.697519 -70.370370
L 43.835854 -69.135802
L 45.974188 -70.370370
L 45.974188 -67.901234
L 48.112522 -66.666666
L 45.974188 -65.432099
L 45.974188 -62.962963
L 43.835854 -64.197531
L 41.697519 -62.962963
L 41.697519 -60.493827
L 43.835853 -59.259259
L 41.697519 -58.024691
L 41.697519 -55.555555
L 39.559185 -56.790123
L 37.420850 -55.555555
L 37.420850 -58.024691
L 35.282516 -59.259259
L 33.144182 -58.024691
L 33.144182 -55.555555
L 31.005847 -56.790123
L 28.867513 -55.555555
L 28.867513 -53.086420
L 31.005847 -51.851852
L 28.867513 -50.617284
L 28.867513 -48.148148
L 31.005847 -46.913580
L 33.144182 -48.148148
L 33.144182 -45.679012
L 35.282516 -44.444444
L 33.144182 -43.209876
L 33.144182 -40.740741
L 31.005847 -41.975309
L 28.867513 -40.740741
L 28.867513 -38.271605
L 31.005847 -37.037037
L 28.867513 -35.802469
L 28.867513 -33.333333
L 31.005847 -32.098765
L 33.144182 -33.333333
L 33.144182 -30.864197
L 35.282516 -29.629630
L 37.420850 -30.864197
L 37.420850 -33.333333
L 39.559185 -32.098765
L 41.697519 -33.333333
L 41.697519 -30.864198
L 43.835853 -29.629630
L 41.697519 -28.395062
L 41.697519 -25.925926
L 43.835853 -24.691358
L 45.974188 -25.925926
L 45.974188 -23.456790
L 48.112522 -22.222222
L 50.250856 -23.456790
L 50.250856 -25.925926
L 52.389191 -24.691358
L 54.527525 -25.925926
L 54.527525 -28.395062
L 52.389191 -29.629630
L 54.527525 -30.864198
L 54.527525 -33.333333
L 56.665859 -32.098765
L 58.804194 -33.333333
L 58.804194 -30.864198
L 60.942528 -29.629630
L 63.080862 -30.864198
L 63.080862 -33.333333
L 65.219197 -32.098765
L 67.357531 -33.333333
L 67.357531 -30.864198
L 69.495865 -29.629630
L 67.357531 -28.395062
L 67.357531 -25.925926
L 69.495865 -24.691358
L 71.634200 -25.925926
L 71.634200 -23.456790
L 73.772534 -22.222222
L 71.634200 -20.987654
L 71.634200 -18.518519
L 69.495865 -19.753086
L 67.357531 -18.518519
L 67.357531 -16.049383
L 69.495865 -14.814815
L 67.357531 -13.580247
L 67.357531 -11.111111
L 69.495865 -9.876543
L 71.634200 -11.111111
L 71.634200 -8.641975
L 73.772534 -7.407407
L 75.910868 -8.641975
L 75.910868 -11.111111
L 78.049203 -9.876543
L 80.187537 -11.111111
L 80.187537 -8.641975
L 82.325871 -7.407408
L 80.187537 -6.172840
L 80.187537 -3.703704
L 82.325871 -2.469136
L 84.464206 -3.703704
L 84.464206 -1.234568
L 86.602540 -0.000000
L 84.464206 1.234568
L 84.464206 3.703704
L 82.325872 2.469136
L 80.187537 3.703704
L 80.187537 6.172840
L 82.325872 7.407407
L 80.187537 8.641975
L 80.187537 11.111111
L 78.049203 9.876543
L 75.910869 11.111111
L 75.910869 8.641975
L 73.772534 7.407407
L 71.634200 8.641975
L 71.634200 11.111111
L 69.495866 9.876543
L 67.357531 11.111111
L 67.357531 13.580247
L 69.495866 14.814815
L 67.357531 16.049383
L 67.357531 18.518519
L 69.495866 19.753086
L 71.634200 18.518519
L 71.634200 20.987654
L 73.772534 22.222222
L 71.634200 23.456790
L 71.634200 25.925926
L 69.495866 24.691358
L 67.357531 25.925926
L 67.357531 28.395062
L 69.495866 29.629630
L 67.357531 30.864198
L 67.357531 33.333333
L 65.219197 32.098765
L 63.080863 33.333333
L 63.080863 30.864198
L 60.942528 29.629630
L 58.804194 30.864198
L 58.804194 33.333333
L 56.665860 32.098765
L 54.527525 33.333333
L 54.527525 30.864197
L 52.389191 29.629630
L 54.527525 28.395062
L 54.527525 25.925926
L 52.389191 24.691358
L 50.250857 25.925926
L 50.250857 23.456790
L 48.112522 22.222222
L 45.974188 23.456790
L 45.974188 25.925926
L 43.835854 24.691358
L 41.697519 25.925926
L 41.697519 28.395062
L 43.835854 29.629630
L 41.697519 30.864198
L 41.697519 33.333333
L 39.559185 32.098765
L 37.420851 33.333333
L 37.420851 30.864198
L 35.282516 29.629630
L 33.144182 30.864198
L 33.144182 33.333333
L 31.005848 32.098765
L 28.867513 33.333333
L 28.867513 35.802469
L 31.005848 37.037037
L 28.867513 38.271605
L 28.867513 40.740741
L 31.005848 41.975309
L 33.144182 40.740741
L 33.144182 43.209877
L 35.282516 44.444445
L 33.144182 45.679012
L 33.144182 48.148148
L 31.005848 46.913580
L 28.867513 48.148148
L 28.867513 50.617284
L 31.005848 51.851852
L 28.867513 53.086420
L 28.867513 55.555556
L 31.005848 56.790123
L 33.144182 55.555556
L 33.144182 58.024691
L 35.282516 59.259259
L 37.420851 58.024691
L 37.420851 55.555556
L 39.559185 56.790124
L 41.697519 55.555556
L 41.697519 58.024691
L 43.835854 59.259259
L 41.697519 60.493827
L 41.697519 62.962963
L 43.835854 64.197531
L 45.974188 62.962963
L 45.974188 65.432099
L 48.112522 66.666667
L 45.974188 67.901235
L 45.974188 70.370371
L 43.835854 69.135803
L 41.697519 70.370371
L 41.697519 72.839506
L 43.835853 74.074074
L 41.697519 75.308642
L 41.697519 77.777778
L 39.559185 76.543210
L 37.420850 77.777778
L 37.420850 75.308642
L 35.282516 74.074074
L 33.144182 75.308642
L 33.144182 77.777778
L 31.005847 76.543210
L 28.867513 77.777778
L 28.867513 80.246914
L 31.005847 81.481482
L 28.867513 82.716049
L 28.867513 85.185185
L 31.005847 86.419753
L 33.144182 85.185185
L 33.144182 87.654321
L 35.282516 88.888889
L 33.144182 90.123457
L 33.144182 92.592593
L 31.005847 91.358025
L 28.867513 92.592593
L 28.867513 95.061728
L 31.005847 96.296296
L 28.867513 97.530864
L 28.867513 100.000000
L 26.729179 98.765432
L 24.590844 100.000000
L 24.590844 97.530864
L 22.452510 96.296296
L 20.314176 97.530864
L 20.314176 100.000000
L 18.175841 98.765432
L 16.037507 100.000000
L 16.037507 97.530864
L 13.899173 96.296296
L 16.037507 95.061728
L 16.037507 92.592593
L 13.899173 91.358025
L 11.760839 92.592593
L 11.760839 90.123457
L 9.622504 88.888889
L 7.484170 90.123457
L 7.484170 92.592593
L 5.345836 91.358025
L 3.207501 92.592593
L 3.207501 95.061728
L 5.345835 96.296296
L 3.207501 97.530864
L 3.207501 100.000000
L 1.069167 98.765432
L -1.069168 100.000000
L -1.069168 97.530864
L -3.207502 96.296296
L -5.345836 97.530864
L -5.345836 100.000000
L -7.484171 98.765432
L -9.622505 100.000000
L -9.622505 97.530864
L -11.760839 96.296296
L -9.622505 95.061728
L -9.622505 92.592592
L -11.760839 91.358024
L -13.899173 92.592592
L -13.899173 90.123457
L -16.037508 88.888889
L -13.899173 87.654321
L -13.899173 85.185185
L -11.760839 86.419753
L -9.622505 85.185185
L -9.622505 82.716049
L -11.760839 81.481481
L -9.622505 80.246913
L -9.622505 77.777778
L -11.760839 76.543210
L -13.899173 77.777778
L -13.899173 75.308642
L -16.037508 74.074074
L -18.175842 75.308642
L -18.175842 77.777778
L -20.314176 76.543210
L -22.452511 77.777778
L -22.452511 75.308642
L -24.590845 74.074074
L -22.452511 72.839506
L -22.452511 70.370370
L -24.590845 69.135802
L -26.729179 70.370370
L -26.729179 67.901234
L -28.867514 66.666667
L -31.005848 67.901234
L -31.005848 70.370370
L -33.144182 69.135802
L -35.282517 70.370370
L -35.282517 72.839506
L -33.144182 74.074074
L -35.282517 75.308642
L -35.282517 77.777778
L -37.420851 76.543210
L -39.559185 77.777778
L -39.559185 75.308642
L -41.697520 74.074074
L -43.835854 75.308642
L -43.835854 77.777778
L -45.974188 76.543210
L -48.112523 77.777778
L -48.112523 80.246914
L -45.974188 81.481481
L -48.112523 82.716049
L -48.112523 85.185185
L -45.974188 86.419753
L -43.835854 85.185185
L -43.835854 87.654321
L -41.697520 88.888889
L -43.835854 90.123457
L -43.835854 92.592593
L -45.974188 91.358025
L -48.112523 92.592593
L -48.112523 95.061728
L -45.974188 96.296296
L -48.112523 97.530864
L -48.112523 100.000000
L -50.250857 98.765432
L -52.389191 100.000000
L -52.389191 97.530864
L -54.527526 96.296296
L -56.665860 97.530864
L -56.665860 100.000000
L -58.804194 98.765432
L -60.942529 100.000000
L -60.942529 97.530864
L -63.080863 96.296296
L -60.942529 95.061728
L -60.942529 92.592593
L -63.080863 91.358025
L -65.219197 92.592593
L -65.219197 90.123457
L -67.357532 88.888889
L -69.495866 90.123457
L -69.495866 92.592593
L -71.634200 91.358025
L -73.772535 92.592593
L -73.772535 95.061728
L -71.634200 96.296296
L -73.772535 97.530864
L -73.772535 100.000000
L -75.910869 98.765432
L -78.049203 100.000000
L -78.049203 97.530864
L -80.187538 96.296296
L -82.325872 97.530864
L -82.325872 100.000000
L -84.464206 98.765432
L -86.602540 100.000000
"
stroke="rgb(0.000000 0.000000 0.000000)" stroke-width="0.500000" fill="none"/></svg>
