<svg viewBox="-50.000000 -50.000000 100.000000 100.000000">
<path d="
M -40.000000 -0.000000
L -40.000000 -0.000000
L 40.000000 -0.000000
"
stroke="rgb(0.000000 0.000000 0.000000)" stroke-width="1.000000" fill="none"/><path d="
M -39.866667 1.500000
L -39.866667 1.500000
L -13.466667 1.500000
"
stroke="rgb(0.000000 0.000000 0.000000)" stroke-width="1.000000" fill="none"/><path d="
M -39.822667 3.000000
L -39.822667 3.000000
L -31.110667 3.000000
"
stroke="rgb(0.000000 0.000000 0.000000)" stroke-width="1.000000" fill="none"/><path d="
M -39.808147 4.500000
L -39.808147 4.500000
L -36.933187 4.500000
"
stroke="rgb(0.000000 0.000000 0.000000)" stroke-width="1.000000" fill="none"/><path d="
M -39.803355 6.000000
L -39.803355 6.000000
L -38.854618 6.000000
"
stroke="rgb(0.000000 0.000000 0.000000)" stroke-width="1.000000" fill="none"/><path d="
M -39.801774 7.500000
L -39.801774 7.500000
L -39.488691 7.500000
"
stroke="rgb(0.000000 0.000000 0.000000)" stroke-width="1.000000" fill="none"/><path d="
M -39.801252 9.000000
L -39.801252 9.000000
L -39.697935 9.000000
"
stroke="rgb(0.000000 0.000000 0.000000)" stroke-width="1.000000" fill="none"/><path d="
M -39.592530 9.000000
L -39.592530 9.000000
L -39.489212 9.000000
"
stroke="rgb(0.000000 0.000000 0.000000)" stroke-width="1.000000" fill="none"/><path d="
M -39.169283 7.500000
L -39.169283 7.500000
L -38.856199 7.500000
"
stroke="rgb(0.000000 0.000000 0.000000)" stroke-width="1.000000" fill="none"/><path d="
M -39.168761 9.000000
L -39.168761 9.000000
L -39.065443 9.000000
"
stroke="rgb(0.000000 0.000000 0.000000)" stroke-width="1.000000" fill="none"/><path d="
M -38.960039 9.000000
L -38.960039 9.000000
L -38.856721 9.000000
"
stroke="rgb(0.000000 0.000000 0.000000)" stroke-width="1.000000" fill="none"/><path d="
M -37.886715 6.000000
L -37.886715 6.000000
L -36.937978 6.000000
"
stroke="rgb(0.000000 0.000000 0.000000)" stroke-width="1.000000" fill="none"/><path d="
M -37.885134 7.500000
L -37.885134 7.500000
L -37.572051 7.500000
"
stroke="rgb(0.000000 0.000000 0.000000)" stroke-width="1.000000" fill="none"/><path d="
M -37.884612 9.000000
L -37.884612 9.000000
L -37.781295 9.000000
"
stroke="rgb(0.000000 0.000000 0.000000)" stroke-width="1.000000" fill="none"/><path d="
M -37.675890 9.000000
L -37.675890 9.000000
L -37.572572 9.000000
"
stroke="rgb(0.000000 0.000000 0.000000)" stroke-width="1.000000" fill="none"/><path d="
M -37.252643 7.500000
L -37.252643 7.500000
L -36.939559 7.500000
"
stroke="rgb(0.000000 0.000000 0.000000)" stroke-width="1.000000" fill="none"/><path d="
M -37.252121 9.000000
L -37.252121 9.000000
L -37.148803 9.000000
"
stroke="rgb(0.000000 0.000000 0.000000)" stroke-width="1.000000" fill="none"/><path d="
M -37.043399 9.000000
L -37.043399 9.000000
L -36.940081 9.000000
"
stroke="rgb(0.000000 0.000000 0.000000)" stroke-width="1.000000" fill="none"/><path d="
M -34.000147 4.500000
L -34.000147 4.500000
L -31.125187 4.500000
"
stroke="rgb(0.000000 0.000000 0.000000)" stroke-width="1.000000" fill="none"/><path d="
M -33.995355 6.000000
L -33.995355 6.000000
L -33.046618 6.000000
"
stroke="rgb(0.000000 0.000000 0.000000)" stroke-width="1.000000" fill="none"/><path d="
M -33.993774 7.500000
L -33.993774 7.500000
L -33.680691 7.500000
"
stroke="rgb(0.000000 0.000000 0.000000)" stroke-width="1.000000" fill="none"/><path d="
M -33.993252 9.000000
L -33.993252 9.000000
L -33.889935 9.000000
"
stroke="rgb(0.000000 0.000000 0.000000)" stroke-width="1.000000" fill="none"/><path d="
M -33.784530 9.000000
L -33.784530 9.000000
L -33.681212 9.000000
"
stroke="rgb(0.000000 0.000000 0.000000)" stroke-width="1.000000" fill="none"/><path d="
M -33.361283 7.500000
L -33.361283 7.500000
L -33.048199 7.500000
"
stroke="rgb(0.000000 0.000000 0.000000)" stroke-width="1.000000" fill="none"/><path d="
M -33.360761 9.000000
L -33.360761 9.000000
L -33.257443 9.000000
"
stroke="rgb(0.000000 0.000000 0.000000)" stroke-width="1.000000" fill="none"/><path d="
M -33.152039 9.000000
L -33.152039 9.000000
L -33.048721 9.000000
"
stroke="rgb(0.000000 0.000000 0.000000)" stroke-width="1.000000" fill="none"/><path d="
M -32.078715 6.000000
L -32.078715 6.000000
L -31.129978 6.000000
"
stroke="rgb(0.000000 0.000000 0.000000)" stroke-width="1.000000" fill="none"/><path d="
M -32.077134 7.500000
L -32.077134 7.500000
L -31.764051 7.500000
"
stroke="rgb(0.000000 0.000000 0.000000)" stroke-width="1.000000" fill="none"/><path d="
M -32.076612 9.000000
L -32.076612 9.000000
L -31.973295 9.000000
"
stroke="rgb(0.000000 0.000000 0.000000)" stroke-width="1.000000" fill="none"/><path d="
M -31.867890 9.000000
L -31.867890 9.000000
L -31.764572 9.000000
"
stroke="rgb(0.000000 0.000000 0.000000)" stroke-width="1.000000" fill="none"/><path d="
M -31.444643 7.500000
L -31.444643 7.500000
L -31.131559 7.500000
"
stroke="rgb(0.000000 0.000000 0.000000)" stroke-width="1.000000" fill="none"/><path d="
M -31.444121 9.000000
L -31.444121 9.000000
L -31.340803 9.000000
"
stroke="rgb(0.000000 0.000000 0.000000)" stroke-width="1.000000" fill="none"/><path d="
M -31.235399 9.000000
L -31.235399 9.000000
L -31.132081 9.000000
"
stroke="rgb(0.000000 0.000000 0.000000)" stroke-width="1.000000" fill="none"/><path d="
M -22.222667 3.000000
L -22.222667 3.000000
L -13.510667 3.000000
"
stroke="rgb(0.000000 0.000000 0.000000)" stroke-width="1.000000" fill="none"/><path d="
M -22.208147 4.500000
L -22.208147 4.500000
L -19.333187 4.500000
"
stroke="rgb(0.000000 0.000000 0.000000)" stroke-width="1.000000" fill="none"/><path d="
M -22.203355 6.000000
L -22.203355 6.000000
L -21.254618 6.000000
"
stroke="rgb(0.000000 0.000000 0.000000)" stroke-width="1.000000" fill="none"/><path d="
M -22.201774 7.500000
L -22.201774 7.500000
L -21.888691 7.500000
"
stroke="rgb(0.000000 0.000000 0.000000)" stroke-width="1.000000" fill="none"/><path d="
M -22.201252 9.000000
L -22.201252 9.000000
L -22.097935 9.000000
"
stroke="rgb(0.000000 0.000000 0.000000)" stroke-width="1.000000" fill="none"/><path d="
M -21.992530 9.000000
L -21.992530 9.000000
L -21.889212 9.000000
"
stroke="rgb(0.000000 0.000000 0.000000)" stroke-width="1.000000" fill="none"/><path d="
M -21.569283 7.500000
L -21.569283 7.500000
L -21.256199 7.500000
"
stroke="rgb(0.000000 0.000000 0.000000)" stroke-width="1.000000" fill="none"/><path d="
M -21.568761 9.000000
L -21.568761 9.000000
L -21.465443 9.000000
"
stroke="rgb(0.000000 0.000000 0.000000)" stroke-width="1.000000" fill="none"/><path d="
M -21.360039 9.000000
L -21.360039 9.000000
L -21.256721 9.000000
"
stroke="rgb(0.000000 0.000000 0.000000)" stroke-width="1.000000" fill="none"/><path d="
M -20.286715 6.000000
L -20.286715 6.000000
L -19.337978 6.000000
"
stroke="rgb(0.000000 0.000000 0.000000)" stroke-width="1.000000" fill="none"/><path d="
M -20.285134 7.500000
L -20.285134 7.500000
L -19.972051 7.500000
"
stroke="rgb(0.000000 0.000000 0.000000)" stroke-width="1.000000" fill="none"/><path d="
M -20.284612 9.000000
L -20.284612 9.000000
L -20.181295 9.000000
"
stroke="rgb(0.000000 0.000000 0.000000)" stroke-width="1.000000" fill="none"/><path d="
M -20.075890 9.000000
L -20.075890 9.000000
L -19.972572 9.000000
"
stroke="rgb(0.000000 0.000000 0.000000)" stroke-width="1.000000" fill="none"/><path d="
M -19.652643 7.500000
L -19.652643 7.500000
L -19.339559 7.500000
"
stroke="rgb(0.000000 0.000000 0.000000)" stroke-width="1.000000" fill="none"/><path d="
M -19.652121 9.000000
L -19.652121 9.000000
L -19.548803 9.000000
"
stroke="rgb(0.000000 0.000000 0.000000)" stroke-width="1.000000" fill="none"/><path d="
M -19.443399 9.000000
L -19.443399 9.000000
L -19.340081 9.000000
"
stroke="rgb(0.000000 0.000000 0.000000)" stroke-width="1.000000" fill="none"/><path d="
M -16.400147 4.500000
L -16.400147 4.500000
L -13.525187 4.500000
"
stroke="rgb(0.000000 0.000000 0.000000)" stroke-width="1.000000" fill="none"/><path d="
M -16.395355 6.000000
L -16.395355 6.000000
L -15.446618 6.000000
"
stroke="rgb(0.000000 0.000000 0.000000)" stroke-width="1.000000" fill="none"/><path d="
M -16.393774 7.500000
L -16.393774 7.500000
L -16.080691 7.500000
"
stroke="rgb(0.000000 0.000000 0.000000)" stroke-width="1.000000" fill="none"/><path d="
M -16.393252 9.000000
L -16.393252 9.000000
L -16.289935 9.000000
"
stroke="rgb(0.000000 0.000000 0.000000)" stroke-width="1.000000" fill="none"/><path d="
M -16.184530 9.000000
L -16.184530 9.000000
L -16.081212 9.000000
"
stroke="rgb(0.000000 0.000000 0.000000)" stroke-width="1.000000" fill="none"/><path d="
M -15.761283 7.500000
L -15.761283 7.500000
L -15.448199 7.500000
"
stroke="rgb(0.000000 0.000000 0.000000)" stroke-width="1.000000" fill="none"/><path d="
M -15.760761 9.000000
L -15.760761 9.000000
L -15.657443 9.000000
"
stroke="rgb(0.000000 0.000000 0.000000)" stroke-width="1.000000" fill="none"/><path d="
M -15.552039 9.000000
L -15.552039 9.000000
L -15.448721 9.000000
"
stroke="rgb(0.000000 0.000000 0.000000)" stroke-width="1.000000" fill="none"/><path d="
M -14.478715 6.000000
L -14.478715 6.000000
L -13.529978 6.000000
"
stroke="rgb(0.000000 0.000000 0.000000)" stroke-width="1.000000" fill="none"/><path d="
M -14.477134 7.500000
L -14.477134 7.500000
L -14.164051 7.500000
"
stroke="rgb(0.000000 0.000000 0.000000)" stroke-width="1.000000" fill="none"/><path d="
M -14.476612 9.000000
L -14.476612 9.000000
L -14.373295 9.000000
"
stroke="rgb(0.000000 0.000000 0.000000)" stroke-width="1.000000" fill="none"/><path d="
M -14.267890 9.000000
L -14.267890 9.000000
L -14.164572 9.000000
"
stroke="rgb(0.000000 0.000000 0.000000)" stroke-width="1.000000" fill="none"/><path d="
M -13.844643 7.500000
L -13.844643 7.500000
L -13.531559 7.500000
"
stroke="rgb(0.000000 0.000000 0.000000)" stroke-width="1.000000" fill="none"/><path d="
M -13.844121 9.000000
L -13.844121 9.000000
L -13.740803 9.000000
"
stroke="rgb(0.000000 0.000000 0.000000)" stroke-width="1.000000" fill="none"/><path d="
M -13.635399 9.000000
L -13.635399 9.000000
L -13.532081 9.000000
"
stroke="rgb(0.000000 0.000000 0.000000)" stroke-width="1.000000" fill="none"/><path d="
M 13.466667 1.500000
L 13.466667 1.500000
L 39.866667 1.500000
"
stroke="rgb(0.000000 0.000000 0.000000)" stroke-width="1.000000" fill="none"/><path d="
M 13.510667 3.000000
L 13.510667 3.000000
L 22.222667 3.000000
"
stroke="rgb(0.000000 0.000000 0.000000)" stroke-width="1.000000" fill="none"/><path d="
M 13.525187 4.500000
L 13.525187 4.500000
L 16.400147 4.500000
"
stroke="rgb(0.000000 0.000000 0.000000)" stroke-width="1.000000" fill="none"/><path d="
M 13.529978 6.000000
L 13.529978 6.000000
L 14.478715 6.000000
"
stroke="rgb(0.000000 0.000000 0.000000)" stroke-width="1.000000" fill="none"/><path d="
M 13.531559 7.500000
L 13.531559 7.500000
L 13.844643 7.500000
"
stroke="rgb(0.000000 0.000000 0.000000)" stroke-width="1.000000" fill="none"/><path d="
M 13.532081 9.000000
L 13.532081 9.000000
L 13.635399 9.000000
"
stroke="rgb(0.000000 0.000000 0.000000)" stroke-width="1.000000" fill="none"/><path d="
M 13.740803 9.000000
L 13.740803 9.000000
L 13.844121 9.000000
"
stroke="rgb(0.000000 0.000000 0.000000)" stroke-width="1.000000" fill="none"/><path d="
M 14.164051 7.500000
L 14.164051 7.500000
L 14.477134 7.500000
"
stroke="rgb(0.000000 0.000000 0.000000)" stroke-width="1.000000" fill="none"/><path d="
M 14.164572 9.000000
L 14.164572 9.000000
L 14.267890 9.000000
"
stroke="rgb(0.000000 0.000000 0.000000)" stroke-width="1.000000" fill="none"/><path d="
M 14.373295 9.000000
L 14.373295 9.000000
L 14.476612 9.000000
"
stroke="rgb(0.000000 0.000000 0.000000)" stroke-width="1.000000" fill="none"/><path d="
M 15.446618 6.000000
L 15.446618 6.000000
L 16.395355 6.000000
"
stroke="rgb(0.000000 0.000000 0.000000)" stroke-width="1.000000" fill="none"/><path d="
M 15.448199 7.500000
L 15.448199 7.500000
L 15.761283 7.500000
"
stroke="rgb(0.000000 0.000000 0.000000)" stroke-width="1.000000" fill="none"/><path d="
M 15.448721 9.000000
L 15.448721 9.000000
L 15.552039 9.000000
"
stroke="rgb(0.000000 0.000000 0.000000)" stroke-width="1.000000" fill="none"/><path d="
M 15.657443 9.000000
L 15.657443 9.000000
L 15.760761 9.000000
"
stroke="rgb(0.000000 0.000000 0.000000)" stroke-width="1.000000" fill="none"/><path d="
M 16.080691 7.500000
L 16.080691 7.500000
L 16.393774 7.500000
"
stroke="rgb(0.000000 0.000000 0.000000)" stroke-width="1.000000" fill="none"/><path d="
M 16.081212 9.000000
L 16.081212 9.000000
L 16.184530 9.000000
"
stroke="rgb(0.000000 0.000000 0.000000)" stroke-width="1.000000" fill="none"/><path d="
M 16.289935 9.000000
L 16.289935 9.000000
L 16.393252 9.000000
"
stroke="rgb(0.000000 0.000000 0.000000)" stroke-width="1.000000" fill="none"/><path d="
M 19.333187 4.500000
L 19.333187 4.500000
L 22.208147 4.500000
"
stroke="rgb(0.000000 0.000000 0.000000)" stroke-width="1.000000" fill="none"/><path d="
M 19.337978 6.000000
L 19.337978 6.000000
L 20.286715 6.000000
"
stroke="rgb(0.000000 0.000000 0.000000)" stroke-width="1.000000" fill="none"/><path d="
M 19.339559 7.500000
L 19.339559 7.500000
L 19.652643 7.500000
"
stroke="rgb(0.000000 0.000000 0.000000)" stroke-width="1.000000" fill="none"/><path d="
M 19.340081 9.000000
L 19.340081 9.000000
L 19.443399 9.000000
"
stroke="rgb(0.000000 0.000000 0.000000)" stroke-width="1.000000" fill="none"/><path d="
M 19.548803 9.000000
L 19.548803 9.000000
L 19.652121 9.000000
"
stroke="rgb(0.000000 0.000000 0.000000)" stroke-width="1.000000" fill="none"/><path d="
M 19.972051 7.500000
L 19.972051 7.500000
L 20.285134 7.500000
"
stroke="rgb(0.000000 0.000000 0.000000)" stroke-width="1.000000" fill="none"/><path d="
M 19.972572 9.000000
L 19.972572 9.000000
L 20.075890 9.000000
"
stroke="rgb(0.000000 0.000000 0.000000)" stroke-width="1.000000" fill="none"/><path d="
M 20.181295 9.000000
L 20.181295 9.000000
L 20.284612 9.000000
"
stroke="rgb(0.000000 0.000000 0.000000)" stroke-width="1.000000" fill="none"/><path d="
M 21.254618 6.000000
L 21.254618 6.000000
L 22.203355 6.000000
"
stroke="rgb(0.000000 0.000000 0.000000)" stroke-width="1.000000" fill="none"/><path d="
M 21.256199 7.500000
L 21.256199 7.500000
L 21.569283 7.500000
"
stroke="rgb(0.000000 0.000000 0.000000)" stroke-width="1.000000" fill="none"/><path d="
M 21.256721 9.000000
L 21.256721 9.000000
L 21.360039 9.000000
"
stroke="rgb(0.000000 0.000000 0.000000)" stroke-width="1.000000" fill="none"/><path d="
M 21.465443 9.000000
L 21.465443 9.000000
L 21.568761 9.000000
"
stroke="rgb(0.000000 0.000000 0.000000)" stroke-width="1.000000" fill="none"/><path d="
M 21.888691 7.500000
L 21.888691 7.500000
L 22.201774 7.500000
"
stroke="rgb(0.000000 0.000000 0.000000)" stroke-width="1.000000" fill="none"/><path d="
M 21.889212 9.000000
L 21.889212 9.000000
L 21.992530 9.000000
"
stroke="rgb(0.000000 0.000000 0.000000)" stroke-width="1.000000" fill="none"/><path d="
M 22.097935 9.000000
L 22.097935 9.000000
L 22.201252 9.000000
"
stroke="rgb(0.000000 0.000000 0.000000)" stroke-width="1.000000" fill="none"/><path d="
M 31.110667 3.000000
L 31.110667 3.000000
L 39.822667 3.000000
"
stroke="rgb(0.000000 0.000000 0.000000)" stroke-width="1.000000" fill="none"/><path d="
M 31.125187 4.500000
L 31.125187 4.500000
L 34.000147 4.500000
"
stroke="rgb(0.000000 0.000000 0.000000)" stroke-width="1.000000" fill="none"/><path d="
M 31.129978 6.000000
L 31.129978 6.000000
L 32.078715 6.000000
"
stroke="rgb(0.000000 0.000000 0.000000)" stroke-width="1.000000" fill="none"/><path d="
M 31.131559 7.500000
L 31.131559 7.500000
L 31.444643 7.500000
"
stroke="rgb(0.000000 0.000000 0.000000)" stroke-width="1.000000" fill="none"/><path d="
M 31.132081 9.000000
L 31.132081 9.000000
L 31.235399 9.000000
"
stroke="rgb(0.000000 0.000000 0.000000)" stroke-width="1.000000" fill="none"/><path d="
M 31.340803 9.000000
L 31.340803 9.000000
L 31.444121 9.000000
"
stroke="rgb(0.000000 0.000000 0.000000)" stroke-width="1.000000" fill="none"/><path d="
M 31.764051 7.500000
L 31.764051 7.500000
L 32.077134 7.500000
"
stroke="rgb(0.000000 0.000000 0.000000)" stroke-width="1.000000" fill="none"/><path d="
M 31.764572 9.000000
L 31.764572 9.000000
L 31.867890 9.000000
"
stroke="rgb(0.000000 0.000000 0.000000)" stroke-width="1.000000" fill="none"/><path d="
M 31.973295 9.000000
L 31.973295 9.000000
L 32.076612 9.000000
"
stroke="rgb(0.000000 0.000000 0.000000)" stroke-width="1.000000" fill="none"/><path d="
M 33.046618 6.000000
L 33.046618 6.000000
L 33.995355 6.000000
"
stroke="rgb(0.000000 0.000000 0.000000)" stroke-width="1.000000" fill="none"/><path d="
M 33.048199 7.500000
L 33.048199 7.500000
L 33.361283 7.500000
"
stroke="rgb(0.000000 0.000000 0.000000)" stroke-width="1.000000" fill="none"/><path d="
M 33.048721 9.000000
L 33.048721 9.000000
L 33.152039 9.000000
"
stroke="rgb(0.000000 0.000000 0.000000)" stroke-width="1.000000" fill="none"/><path d="
M 33.257443 9.000000
L 33.257443 9.000000
L 33.360761 9.000000
"
stroke="rgb(0.000000 0.000000 0.000000)" stroke-width="1.000000" fill="none"/><path d="
M 33.680691 7.500000
L 33.680691 7.500000
L 33.993774 7.500000
"
stroke="rgb(0.000000 0.000000 0.000000)" stroke-width="1.000000" fill="none"/><path d="
M 33.681212 9.000000
L 33.681212 9.000000
L 33.784530 9.000000
"
stroke="rgb(0.000000 0.000000 0.000000)" stroke-width="1.000000" fill="none"/><path d="
M 33.889935 9.000000
L 33.889935 9.000000
L 33.993252 9.000000
"
stroke="rgb(0.000000 0.000000 0.000000)" stroke-width="1.000000" fill="none"/><path d="
M 36.933187 4.500000
L 36.933187 4.500000
L 39.808147 4.500000
"
stroke="rgb(0.000000 0.000000 0.000000)" stroke-width="1.000000" fill="none"/><path d="
M 36.937978 6.000000
L 36.937978 6.000000
L 37.886715 6.000000
"
stroke="rgb(0.000000 0.000000 0.000000)" stroke-width="1.000000" fill="none"/><path d="
M 36.939559 7.500000
L 36.939559 7.500000
L 37.252643 7.500000
"
stroke="rgb(0.000000 0.000000 0.000000)" stroke-width="1.000000" fill="none"/><path d="
M 36.940081 9.000000
L 36.940081 9.000000
L 37.043399 9.000000
"
stroke="rgb(0.000000 0.000000 0.000000)" stroke-width="1.000000" fill="none"/><path d="
M 37.148803 9.000000
L 37.148803 9.000000
L 37.252121 9.000000
"
stroke="rgb(0.000000 0.000000 0.000000)" stroke-width="1.000000" fill="none"/><path d="
M 37.572051 7.500000
L 37.572051 7.500000
L 37.885134 7.500000
"
stroke="rgb(0.000000 0.000000 0.000000)" stroke-width="1.000000" fill="none"/><path d="
M 37.572572 9.000000
L 37.572572 9.000000
L 37.675890 9.000000
"
stroke="rgb(0.000000 0.000000 0.000000)" stroke-width="1.000000" fill="none"/><path d="
M 37.781295 9.000000
L 37.781295 9.000000
L 37.884612 9.000000
"
stroke="rgb(0.000000 0.000000 0.000000)" stroke-width="1.000000" fill="none"/><path d="
M 38.854618 6.000000
L 38.854618 6.000000
L 39.803355 6.000000
"
stroke="rgb(0.000000 0.000000 0.000000)" stroke-width="1.000000" fill="none"/><path d="
M 38.856199 7.500000
L 38.856199 7.500000
L 39.169283 7.500000
"
stroke="rgb(0.000000 0.000000 0.000000)" stroke-width="1.000000" fill="none"/><path d="
M 38.856721 9.000000
L 38.856721 9.000000
L 38.960039 9.000000
"
stroke="rgb(0.000000 0.000000 0.000000)" stroke-width="1.000000" fill="none"/><path d="
M 39.065443 9.000000
L 39.065443 9.000000
L 39.168761 9.000000
"
stroke="rgb(0.000000 0.000000 0.000000)" stroke-width="1.000000" fill="none"/><path d="
M 39.488691 7.500000
L 39.488691 7.500000
L 39.801774 7.500000
"
stroke="rgb(0.000000 0.000000 0.000000)" stroke-width="1.000000" fill="none"/><path d="
M 39.489212 9.000000
L 39.489212 9.000000
L 39.592530 9.000000
"
stroke="rgb(0.000000 0.000000 0.000000)" stroke-width="1.000000" fill="none"/><path d="
M 39.697935 9.000000
L 39.697935 9.000000
L 39.801252 9.000000
"
stroke="rgb(0.000000 0.000000 0.000000)" stroke-width="1.000000" fill="none"/></svg>
