<svg viewBox="-25.000000 -25.000000 50.000000 50.000000">
<path d="
M -10.000000 -0.544021
L -10.000000 -0.544021
L -9.900000 -0.457536
L -9.800000 -0.366479
L -9.700000 -0.271761
L -9.600000 -0.174327
L -9.500000 -0.075151
L -9.400000 0.024775
L -9.300000 0.124454
L -9.200000 0.222890
L -9.100000 0.319098
L -9.000000 0.412118
L -8.900000 0.501021
L -8.800000 0.584917
L -8.700000 0.662969
L -8.600000 0.734397
L -8.500000 0.798487
L -8.400000 0.854599
L -8.300000 0.902172
L -8.200000 0.940731
L -8.100000 0.969890
L -8.000000 0.989358
L -7.900000 0.998941
L -7.800000 0.998543
L -7.700000 0.988168
L -7.600000 0.967920
L -7.500000 0.938000
L -7.400000 0.898708
L -7.300000 0.850437
L -7.200000 0.793668
L -7.100000 0.728969
L -7.000000 0.656987
L -6.900000 0.578440
L -6.800000 0.494113
L -6.700000 0.404850
L -6.600000 0.311541
L -6.500000 0.215120
L -6.400000 0.116549
L -6.300000 0.016814
L -6.200000 -0.083089
L -6.100000 -0.182163
L -6.000000 -0.279415
L -5.900000 -0.373877
L -5.800000 -0.464602
L -5.700000 -0.550686
L -5.600000 -0.631267
L -5.500000 -0.705540
L -5.400000 -0.772764
L -5.300000 -0.832267
L -5.200000 -0.883455
L -5.100000 -0.925815
L -5.000000 -0.958924
L -4.900000 -0.982453
L -4.800000 -0.996165
L -4.700000 -0.999923
L -4.600000 -0.993691
L -4.500000 -0.977530
L -4.400000 -0.951602
L -4.300000 -0.916166
L -4.200000 -0.871576
L -4.100000 -0.818277
L -4.000000 -0.756802
L -3.900000 -0.687766
L -3.800000 -0.611858
L -3.700000 -0.529836
L -3.600000 -0.442520
L -3.500000 -0.350783
L -3.400000 -0.255541
L -3.300000 -0.157746
L -3.200000 -0.058374
L -3.100000 0.041581
L -3.000000 0.141120
L -2.900000 0.239249
L -2.800000 0.334988
L -2.700000 0.427380
L -2.600000 0.515501
L -2.500000 0.598472
L -2.400000 0.675463
L -2.300000 0.745705
L -2.200000 0.808496
L -2.100000 0.863209
L -2.000000 0.909297
L -1.900000 0.946300
L -1.800000 0.973848
L -1.700000 0.991665
L -1.600000 0.999574
L -1.500000 0.997495
L -1.400000 0.985450
L -1.300000 0.963558
L -1.200000 0.932039
L -1.100000 0.891207
L -1.000000 0.841471
L -0.900000 0.783327
L -0.800000 0.717356
L -0.700000 0.644218
L -0.600000 0.564642
L -0.500000 0.479426
L -0.400000 0.389418
L -0.300000 0.295520
L -0.200000 0.198669
L -0.100000 0.099833
L -0.000000 0.000000
L 0.100000 -0.099833
L 0.200000 -0.198669
L 0.300000 -0.295520
L 0.400000 -0.389418
L 0.500000 -0.479426
L 0.600000 -0.564642
L 0.700000 -0.644218
L 0.800000 -0.717356
L 0.900000 -0.783327
L 1.000000 -0.841471
L 1.100000 -0.891207
L 1.200000 -0.932039
L 1.300000 -0.963558
L 1.400000 -0.985450
L 1.500000 -0.997495
L 1.600000 -0.999574
L 1.700000 -0.991665
L 1.800000 -0.973848
L 1.900000 -0.946300
L 2.000000 -0.909297
L 2.100000 -0.863209
L 2.200000 -0.808496
L 2.300000 -0.745705
L 2.400000 -0.675463
L 2.500000 -0.598472
L 2.600000 -0.515501
L 2.700000 -0.427380
L 2.800000 -0.334988
L 2.900000 -0.239249
L 3.000000 -0.141120
L 3.100000 -0.041581
L 3.200000 0.058374
L 3.300000 0.157746
L 3.400000 0.255541
L 3.500000 0.350783
L 3.600000 0.442520
L 3.700000 0.529836
L 3.800000 0.611858
L 3.900000 0.687766
L 4.000000 0.756802
L 4.100000 0.818277
L 4.200000 0.871576
L 4.300000 0.916166
L 4.400000 0.951602
L 4.500000 0.977530
L 4.600000 0.993691
L 4.700000 0.999923
L 4.800000 0.996165
L 4.900000 0.982453
L 5.000000 0.958924
L 5.100000 0.925815
L 5.200000 0.883455
L 5.300000 0.832267
L 5.400000 0.772764
L 5.500000 0.705540
L 5.600000 0.631267
L 5.700000 0.550686
L 5.800000 0.464602
L 5.900000 0.373877
L 6.000000 0.279415
L 6.100000 0.182163
L 6.200000 0.083089
L 6.300000 -0.016814
L 6.400000 -0.116549
L 6.500000 -0.215120
L 6.600000 -0.311541
L 6.700000 -0.404850
L 6.800000 -0.494113
L 6.900000 -0.578440
L 7.000000 -0.656987
L 7.100000 -0.728969
L 7.200000 -0.793668
L 7.300000 -0.850437
L 7.400000 -0.898708
L 7.500000 -0.938000
L 7.600000 -0.967920
L 7.700000 -0.988168
L 7.800000 -0.998543
L 7.900000 -0.998941
L 8.000000 -0.989358
L 8.100000 -0.969890
L 8.200000 -0.940731
L 8.300000 -0.902172
L 8.400000 -0.854599
L 8.500000 -0.798487
L 8.600000 -0.734397
L 8.700000 -0.662969
L 8.800000 -0.584917
L 8.900000 -0.501021
L 9.000000 -0.412118
L 9.100000 -0.319098
L 9.200000 -0.222890
L 9.300000 -0.124454
L 9.400000 -0.024775
L 9.500000 0.075151
L 9.600000 0.174327
L 9.700000 0.271761
L 9.800000 0.366479
L 9.900000 0.457536
L 10.000000 0.544021
L 10.000000 0.544021
"
stroke="rgb(255.000000 0.000000 0.000000)" stroke-width="1.000000" fill="none"/><path d="
M -20.000000 15.000000
L -20.000000 15.000000
L -19.900000 14.005013
L -19.800000 13.600000
L -19.700000 13.294128
L -19.600000 13.040408
L -19.500000 12.820551
L -19.400000 12.625132
L -19.300000 12.448530
L -19.200000 12.287068
L -19.100000 12.138182
L -19.000000 12.000000
L -18.900000 11.871102
L -18.800000 11.750385
L -18.700000 11.636966
L -18.600000 11.530130
L -18.500000 11.429286
L -18.400000 11.333939
L -18.300000 11.243672
L -18.200000 11.158125
L -18.100000 11.076991
L -18.000000 11.000000
L -17.900000 10.926918
L -17.800000 10.857537
L -17.700000 10.791675
L -17.600000 10.729169
L -17.500000 10.669873
L -17.400000 10.613658
L -17.300000 10.560405
L -17.200000 10.510011
L -17.100000 10.462379
L -17.000000 10.417424
L -16.900000 10.375068
L -16.800000 10.335238
L -16.700000 10.297873
L -16.600000 10.262912
L -16.500000 10.230304
L -16.400000 10.200000
L -16.300000 10.171957
L -16.200000 10.146136
L -16.100000 10.122501
L -16.000000 10.101021
L -15.900000 10.081667
L -15.800000 10.064415
L -15.700000 10.049242
L -15.600000 10.036131
L -15.500000 10.025063
L -15.400000 10.016026
L -15.300000 10.009008
L -15.200000 10.004002
L -15.100000 10.001000
L -15.000000 10.000000
L -14.900000 10.001000
L -14.800000 10.004002
L -14.700000 10.009008
L -14.600000 10.016026
L -14.500000 10.025063
L -14.400000 10.036131
L -14.300000 10.049242
L -14.200000 10.064415
L -14.100000 10.081667
L -14.000000 10.101021
L -13.900000 10.122501
L -13.800000 10.146136
L -13.700000 10.171957
L -13.600000 10.200000
L -13.500000 10.230304
L -13.400000 10.262912
L -13.300000 10.297873
L -13.200000 10.335238
L -13.100000 10.375068
L -13.000000 10.417424
L -12.900000 10.462379
L -12.800000 10.510011
L -12.700000 10.560405
L -12.600000 10.613658
L -12.500000 10.669873
L -12.400000 10.729169
L -12.300000 10.791675
L -12.200000 10.857537
L -12.100000 10.926918
L -12.000000 11.000000
L -11.900000 11.076991
L -11.800000 11.158125
L -11.700000 11.243672
L -11.600000 11.333939
L -11.500000 11.429286
L -11.400000 11.530130
L -11.300000 11.636966
L -11.200000 11.750385
L -11.100000 11.871102
L -11.000000 12.000000
L -10.900000 12.138182
L -10.800000 12.287068
L -10.700000 12.448530
L -10.600000 12.625132
L -10.500000 12.820551
L -10.400000 13.040408
L -10.300000 13.294128
L -10.200000 13.600000
L -10.100000 14.005013
L -10.000000 15.000000
L -10.000000 15.000000
L -10.100000 15.994987
L -10.200000 16.400000
L -10.300000 16.705872
L -10.400000 16.959592
L -10.500000 17.179449
L -10.600000 17.374868
L -10.700000 17.551470
L -10.800000 17.712932
L -10.900000 17.861818
L -11.000000 18.000000
L -11.100000 18.128898
L -11.200000 18.249615
L -11.300000 18.363034
L -11.400000 18.469870
L -11.500000 18.570714
L -11.600000 18.666061
L -11.700000 18.756328
L -11.800000 18.841875
L -11.900000 18.923009
L -12.000000 19.000000
L -12.100000 19.073082
L -12.200000 19.142463
L -12.300000 19.208325
L -12.400000 19.270831
L -12.500000 19.330127
L -12.600000 19.386342
L -12.700000 19.439595
L -12.800000 19.489989
L -12.900000 19.537621
L -13.000000 19.582576
L -13.100000 19.624932
L -13.200000 19.664762
L -13.300000 19.702127
L -13.400000 19.737088
L -13.500000 19.769696
L -13.600000 19.800000
L -13.700000 19.828043
L -13.800000 19.853864
L -13.900000 19.877499
L -14.000000 19.898979
L -14.100000 19.918333
L -14.200000 19.935585
L -14.300000 19.950758
L -14.400000 19.963869
L -14.500000 19.974937
L -14.600000 19.983974
L -14.700000 19.990992
L -14.800000 19.995998
L -14.900000 19.999000
L -15.000000 20.000000
L -15.100000 19.999000
L -15.200000 19.995998
L -15.300000 19.990992
L -15.400000 19.983974
L -15.500000 19.974937
L -15.600000 19.963869
L -15.700000 19.950758
L -15.800000 19.935585
L -15.900000 19.918333
L -16.000000 19.898979
L -16.100000 19.877499
L -16.200000 19.853864
L -16.300000 19.828043
L -16.400000 19.800000
L -16.500000 19.769696
L -16.600000 19.737088
L -16.700000 19.702127
L -16.800000 19.664762
L -16.900000 19.624932
L -17.000000 19.582576
L -17.100000 19.537621
L -17.200000 19.489989
L -17.300000 19.439595
L -17.400000 19.386342
L -17.500000 19.330127
L -17.600000 19.270831
L -17.700000 19.208325
L -17.800000 19.142463
L -17.900000 19.073082
L -18.000000 19.000000
L -18.100000 18.923009
L -18.200000 18.841875
L -18.300000 18.756328
L -18.400000 18.666061
L -18.500000 18.570714
L -18.600000 18.469870
L -18.700000 18.363034
L -18.800000 18.249615
L -18.900000 18.128898
L -19.000000 18.000000
L -19.100000 17.861818
L -19.200000 17.712932
L -19.300000 17.551470
L -19.400000 17.374868
L -19.500000 17.179449
L -19.600000 16.959592
L -19.700000 16.705872
L -19.800000 16.400000
L -19.900000 15.994987
L -20.000000 15.000000
L -20.000000 15.000000
"
stroke="rgb(0.000000 255.000000 0.000000)" stroke-width="1.000000" fill="none"/><path d="
M 11.000000 -15.000000
L 11.000000 -15.000000
L 11.100000 -16.777639
L 11.200000 -17.497999
L 11.300000 -18.039737
L 11.400000 -18.487119
L 11.500000 -18.872983
L 11.600000 -19.214262
L 11.700000 -19.521062
L 11.800000 -19.800000
L 11.900000 -20.055690
L 12.000000 -20.291503
L 12.100000 -20.509991
L 12.200000 -20.713143
L 12.300000 -20.902542
L 12.400000 -21.079474
L 12.500000 -21.244998
L 12.600000 -21.400000
L 12.700000 -21.545227
L 12.800000 -21.681317
L 12.900000 -21.808818
L 13.000000 -21.928203
L 13.100000 -22.039886
L 13.200000 -22.144228
L 13.300000 -22.241547
L 13.400000 -22.332121
L 13.500000 -22.416198
L 13.600000 -22.493998
L 13.700000 -22.565712
L 13.800000 -22.631514
L 13.900000 -22.691554
L 14.000000 -22.745967
L 14.100000 -22.794870
L 14.200000 -22.838367
L 14.300000 -22.876547
L 14.400000 -22.909488
L 14.500000 -22.937254
L 14.600000 -22.959899
L 14.700000 -22.977468
L 14.800000 -22.989994
L 14.900000 -22.997500
L 15.000000 -23.000000
L 15.100000 -22.997500
L 15.200000 -22.989994
L 15.300000 -22.977468
L 15.400000 -22.959899
L 15.500000 -22.937254
L 15.600000 -22.909488
L 15.700000 -22.876547
L 15.800000 -22.838367
L 15.900000 -22.794870
L 16.000000 -22.745967
L 16.100000 -22.691554
L 16.200000 -22.631514
L 16.300000 -22.565712
L 16.400000 -22.493998
L 16.500000 -22.416198
L 16.600000 -22.332121
L 16.700000 -22.241547
L 16.800000 -22.144228
L 16.900000 -22.039886
L 17.000000 -21.928203
L 17.100000 -21.808818
L 17.200000 -21.681317
L 17.300000 -21.545227
L 17.400000 -21.400000
L 17.500000 -21.244998
L 17.600000 -21.079474
L 17.700000 -20.902542
L 17.800000 -20.713143
L 17.900000 -20.509991
L 18.000000 -20.291503
L 18.100000 -20.055690
L 18.200000 -19.800000
L 18.300000 -19.521062
L 18.400000 -19.214262
L 18.500000 -18.872983
L 18.600000 -18.487119
L 18.700000 -18.039737
L 18.800000 -17.497999
L 18.900000 -16.777639
L 19.000000 -15.000000
L 18.900000 -13.222361
L 18.800000 -12.502001
L 18.700000 -11.960263
L 18.600000 -11.512881
L 18.500000 -11.127017
L 18.400000 -10.785738
L 18.300000 -10.478938
L 18.200000 -10.200000
L 18.100000 -9.944310
L 18.000000 -9.708497
L 17.900000 -9.490009
L 17.800000 -9.286857
L 17.700000 -9.097458
L 17.600000 -8.920526
L 17.500000 -8.755002
L 17.400000 -8.600000
L 17.300000 -8.454773
L 17.200000 -8.318683
L 17.100000 -8.191182
L 17.000000 -8.071797
L 16.900000 -7.960114
L 16.800000 -7.855772
L 16.700000 -7.758453
L 16.600000 -7.667879
L 16.500000 -7.583802
L 16.400000 -7.506002
L 16.300000 -7.434288
L 16.200000 -7.368486
L 16.100000 -7.308446
L 16.000000 -7.254033
L 15.900000 -7.205130
L 15.800000 -7.161633
L 15.700000 -7.123453
L 15.600000 -7.090512
L 15.500000 -7.062746
L 15.400000 -7.040101
L 15.300000 -7.022532
L 15.200000 -7.010006
L 15.100000 -7.002500
L 15.000000 -7.000000
L 14.900000 -7.002500
L 14.800000 -7.010006
L 14.700000 -7.022532
L 14.600000 -7.040101
L 14.500000 -7.062746
L 14.400000 -7.090512
L 14.300000 -7.123453
L 14.200000 -7.161633
L 14.100000 -7.205130
L 14.000000 -7.254033
L 13.900000 -7.308446
L 13.800000 -7.368486
L 13.700000 -7.434288
L 13.600000 -7.506002
L 13.500000 -7.583802
L 13.400000 -7.667879
L 13.300000 -7.758453
L 13.200000 -7.855772
L 13.100000 -7.960114
L 13.000000 -8.071797
L 12.900000 -8.191182
L 12.800000 -8.318683
L 12.700000 -8.454773
L 12.600000 -8.600000
L 12.500000 -8.755002
L 12.400000 -8.920526
L 12.300000 -9.097458
L 12.200000 -9.286857
L 12.100000 -9.490009
L 12.000000 -9.708497
L 11.900000 -9.944310
L 11.800000 -10.200000
L 11.700000 -10.478938
L 11.600000 -10.785738
L 11.500000 -11.127017
L 11.400000 -11.512881
L 11.300000 -11.960263
L 11.200000 -12.502001
L 11.100000 -13.222361
L 11.000000 -15.000000
"
stroke="rgb(0.000000 0.000000 255.000000)" stroke-width="1.000000" fill="none"/></svg>
